{"glyphs":{"0":{"ha":540,"x_min":40,"x_max":494,"o":"m 46 451 q 65 540 54 511 l 79 575 l 97 606 l 117 633 l 140 657 q 267 697 194 697 q 321 690 303 697 q 367 676 346 688 q 404 647 389 664 l 436 610 l 460 558 l 479 503 l 490 433 l 494 326 q 488 225 494 269 q 396 31 467 94 q 267 -11 351 -11 q 58 171 104 -11 q 40 342 40 243 l 40 390 q 46 451 40 410 m 167 117 q 213 72 186 88 q 267 57 240 57 q 319 69 296 57 q 365 114 343 82 q 407 342 407 174 q 396 483 407 424 q 321 613 379 576 q 267 626 296 626 q 174 578 207 626 q 131 424 140 531 q 128 342 128 390 q 167 117 128 172 z "},"1":{"ha":540,"x_min":106,"x_max":363,"o":"m 276 0 l 276 544 q 242 514 258 525 l 172 469 l 150 458 l 128 449 l 106 440 l 106 524 q 171 557 136 535 l 228 603 q 275 650 251 622 l 307 697 l 363 699 l 363 0 l 276 0 z "},"2":{"ha":540,"x_min":29,"x_max":492,"o":"m 489 0 l 29 0 q 32 29 29 19 l 40 58 q 96 150 51 96 l 117 175 l 140 199 l 207 256 q 299 336 242 285 l 358 400 q 397 479 388 438 q 400 506 400 490 q 365 589 400 551 q 269 626 331 626 q 143 544 174 626 q 133 486 133 519 l 46 497 q 113 645 56 593 q 271 697 169 697 q 428 644 368 697 q 488 504 492 586 l 486 481 l 485 463 q 479 444 483 453 l 472 425 l 461 403 l 447 381 l 431 357 l 414 338 l 358 281 l 283 214 l 219 161 l 183 126 l 147 82 l 489 82 l 489 0 z "},"3":{"ha":540,"x_min":40,"x_max":497,"o":"m 126 196 q 149 125 133 153 q 215 64 167 86 q 263 57 240 57 q 365 99 324 57 q 406 201 406 142 q 395 258 406 229 q 368 299 385 286 l 346 315 l 324 328 l 299 335 l 269 338 q 240 335 253 338 l 208 328 l 218 404 l 232 403 l 258 403 q 283 408 275 407 q 363 468 344 432 q 374 518 374 489 q 365 561 374 540 q 261 626 347 626 q 176 596 207 626 q 135 503 149 572 l 50 518 q 120 649 64 601 q 258 697 176 697 q 313 690 292 697 q 404 646 361 685 q 444 592 426 624 q 461 540 454 572 q 463 517 463 533 q 456 474 463 493 q 407 401 449 439 q 367 376 388 388 q 421 353 400 367 q 497 204 497 313 q 431 49 497 111 q 263 -12 365 -12 q 85 68 146 -12 q 40 182 47 117 l 126 196 z "},"4":{"ha":540,"x_min":13,"x_max":494,"o":"m 314 167 l 13 167 l 13 244 l 329 696 l 400 696 l 400 244 l 494 244 l 494 167 l 400 167 l 400 0 l 314 0 l 314 167 m 314 558 l 96 244 l 314 244 l 314 558 z "},"5":{"ha":540,"x_min":40,"x_max":501,"o":"m 131 189 q 217 65 143 89 q 264 57 239 57 q 368 103 317 57 q 411 226 411 153 q 400 290 411 264 q 348 359 388 333 q 263 385 308 385 l 246 385 q 188 365 214 385 l 172 354 l 158 344 l 146 332 l 136 318 l 56 329 l 122 686 l 468 686 l 468 604 l 192 604 l 154 418 l 185 435 l 217 449 l 249 457 l 285 460 q 376 443 326 463 q 486 326 453 411 q 501 235 501 283 q 446 71 501 138 q 264 -11 378 -11 q 109 40 169 -11 q 40 182 49 92 l 131 189 z "},"6":{"ha":540,"x_min":38,"x_max":496,"o":"m 399 519 l 389 551 l 379 572 l 367 590 q 328 616 351 606 q 281 626 304 626 q 172 568 217 626 q 163 551 167 558 q 146 518 153 533 l 135 486 l 128 449 l 122 404 l 121 357 q 194 426 151 406 l 242 443 q 290 450 269 450 q 406 413 356 450 q 481 313 457 375 q 496 224 496 272 q 489 160 496 192 q 433 53 475 96 q 390 17 414 33 q 278 -11 338 -11 q 104 64 171 -11 q 42 238 54 121 q 38 324 38 278 q 111 618 38 526 q 286 697 175 697 q 365 685 329 697 q 474 574 443 657 q 485 525 481 553 l 399 519 m 136 200 l 139 181 l 144 160 l 154 139 l 175 106 l 204 79 l 239 63 l 276 57 q 406 182 383 57 q 408 219 408 197 q 369 335 408 294 q 274 375 331 375 q 219 364 242 375 q 138 256 154 339 q 135 224 133 236 l 136 200 z "},"7":{"ha":540,"x_min":46,"x_max":497,"o":"m 46 688 l 497 688 l 497 621 l 464 582 l 432 539 l 399 489 l 365 431 l 332 369 l 306 311 l 294 282 l 283 254 l 274 225 l 250 142 l 240 93 l 233 46 l 232 0 l 143 0 q 150 86 143 47 l 160 139 q 211 308 174 214 q 264 421 236 372 l 293 472 l 322 519 l 353 564 l 388 603 l 46 604 l 46 688 z "},"8":{"ha":540,"x_min":39,"x_max":497,"o":"m 93 432 q 72 472 81 450 l 67 518 q 69 554 67 544 l 79 586 l 96 617 l 121 646 q 267 697 178 697 q 415 645 360 697 q 469 515 469 593 q 463 471 469 486 q 432 417 458 443 q 367 376 406 390 q 422 349 400 368 q 488 260 468 319 q 497 197 497 229 q 482 113 497 150 q 363 4 449 32 q 268 -11 317 -11 q 106 46 161 -11 q 57 117 75 76 q 40 200 39 158 l 42 233 q 47 263 43 251 l 51 275 l 58 289 l 65 301 l 74 314 q 172 376 100 353 q 93 432 119 392 m 161 475 q 219 417 183 428 q 269 408 246 408 q 350 440 318 408 q 374 474 361 451 q 382 515 382 493 q 349 594 382 558 q 310 618 336 606 q 268 626 292 626 q 186 594 219 626 q 154 521 160 569 q 161 475 154 494 m 132 164 l 144 129 l 165 97 l 194 75 l 229 61 l 269 57 q 371 97 332 57 q 410 197 410 136 q 399 253 410 229 q 321 329 382 304 q 267 339 294 339 q 211 328 235 339 q 138 253 158 311 q 128 200 128 225 l 132 164 z "},"9":{"ha":540,"x_min":40,"x_max":497,"o":"m 135 168 q 150 115 139 138 q 207 63 163 82 l 251 57 l 289 61 q 321 76 307 65 l 347 97 q 368 122 360 107 l 376 138 l 385 157 l 392 178 l 400 204 l 410 256 l 413 308 l 413 328 q 296 240 376 267 l 246 235 q 101 295 161 235 q 40 463 40 356 q 56 557 40 518 q 136 659 81 621 q 260 697 192 697 q 293 694 278 697 q 323 688 304 693 q 353 678 342 683 l 383 661 q 432 617 406 649 q 490 474 476 561 q 497 361 497 422 l 497 344 q 468 149 497 235 q 385 30 442 71 q 249 -11 329 -11 q 174 0 201 -11 q 115 32 139 8 q 53 160 69 69 l 135 168 m 322 615 q 269 626 296 626 q 214 615 242 626 q 138 525 167 594 q 128 460 128 493 q 167 353 128 392 q 214 321 186 332 q 267 310 242 310 q 393 403 365 310 q 403 467 403 435 q 322 615 403 579 z "}," ":{"ha":526,"x_min":0,"x_max":0,"o":""},"!":{"ha":417,"x_min":225,"x_max":315,"o":"m 299 244 l 236 244 l 225 931 l 310 931 l 299 244 m 228 0 l 228 85 l 315 85 l 315 0 l 228 0 z "},"\"":{"ha":318,"x_min":0,"x_max":450,"o":"m 319 203 q 178 251 240 203 q 111 383 111 300 l 111 660 l 0 660 l 0 717 l 325 717 l 325 660 l 196 660 l 450 396 l 450 256 q 319 203 403 203 m 185 603 l 185 382 q 221 296 185 324 q 263 273 239 282 q 311 264 286 264 l 349 268 l 386 281 l 418 301 l 442 329 l 185 603 z "},"#":{"ha":751,"x_min":0,"x_max":763,"o":"m 401 660 l 401 486 l 440 507 l 488 524 q 532 531 504 528 q 647 481 600 531 q 694 368 694 431 q 679 289 694 331 q 636 208 663 242 l 611 176 l 578 140 l 526 188 l 554 214 l 575 238 q 611 304 593 258 q 624 374 624 336 q 596 449 624 421 q 524 472 567 472 q 456 460 478 472 q 425 444 439 456 l 399 422 q 396 414 397 415 l 394 407 l 392 400 l 389 396 q 363 371 379 381 l 325 354 l 307 350 l 286 349 q 267 346 279 349 l 253 346 l 261 329 l 288 290 l 321 240 l 353 199 l 390 151 l 496 33 l 436 -6 l 400 32 l 351 90 l 288 169 l 228 254 l 160 354 l 111 436 l 97 463 l 85 490 l 144 521 l 196 432 l 207 419 l 226 408 l 249 400 l 271 397 q 322 428 303 400 l 326 449 l 328 485 l 328 660 l 0 660 l 0 717 l 763 717 l 763 660 l 401 660 z "},"$":{"ha":768,"x_min":19,"x_max":738,"o":"m 407 325 l 407 0 l 347 0 l 347 325 l 19 325 l 19 385 l 347 385 l 347 717 l 407 717 l 407 385 l 738 385 l 738 325 l 407 325 z "},"%":{"ha":233,"x_min":71,"x_max":168,"o":"m 71 510 l 71 603 l 168 603 l 168 510 l 71 510 m 71 111 l 71 206 l 168 206 l 168 111 l 71 111 z "},"&":{"ha":768,"x_min":19,"x_max":732,"o":"m 19 325 l 19 385 l 732 385 l 732 325 l 19 325 z "},"'":{"ha":515,"x_min":0,"x_max":515,"o":"m 413 660 q 442 622 432 640 l 464 582 l 476 539 l 482 494 q 438 353 482 421 q 326 257 393 286 q 228 238 281 238 l 458 46 l 410 -3 l 76 279 l 125 328 l 171 290 l 179 288 l 188 288 l 224 289 q 301 314 265 294 l 344 343 l 378 378 l 400 415 l 407 444 l 410 485 l 389 467 l 372 454 q 325 429 350 438 q 282 422 313 425 q 171 465 215 422 q 134 513 147 486 q 121 569 121 540 q 160 658 121 614 l 0 660 l 0 717 l 515 717 l 515 660 l 413 660 m 389 586 q 378 608 385 600 q 285 661 343 661 q 247 654 261 661 q 201 608 215 646 l 196 576 q 222 508 196 535 q 290 482 249 482 q 375 519 338 482 l 386 535 l 401 557 l 389 586 z "},"(":{"ha":250,"x_min":46,"x_max":203,"o":"m 114 367 l 114 447 l 203 447 l 203 367 l 114 367 m 108 -131 l 46 -131 l 108 79 l 201 79 l 108 -131 z "},")":{"ha":868,"x_min":0,"x_max":874,"o":"m 726 660 l 726 469 l 456 469 q 417 463 436 469 q 387 447 399 457 q 367 414 375 436 l 361 371 q 485 213 361 263 q 561 201 522 201 l 576 203 l 597 206 l 614 208 l 621 210 l 619 222 q 626 247 619 235 q 703 324 647 324 q 729 319 718 324 q 749 306 740 315 l 760 283 q 764 257 764 272 q 718 168 764 197 q 689 161 710 164 l 694 136 l 699 119 l 708 79 l 719 44 l 779 -114 l 703 -114 l 665 6 q 638 -21 660 -10 l 578 -50 l 519 -67 q 461 -74 496 -74 q 319 -1 368 -74 l 306 26 l 293 69 l 222 75 l 174 85 q 83 138 118 96 q 54 226 54 172 q 83 317 54 272 q 120 344 97 333 q 165 354 143 354 q 206 349 190 354 q 240 329 221 344 l 260 307 l 268 300 l 231 265 l 219 274 l 213 281 l 190 293 l 168 297 l 144 293 l 129 282 l 119 263 l 114 240 q 135 182 114 207 q 201 140 160 151 l 271 121 q 283 119 276 119 l 289 119 q 304 124 300 119 l 308 132 l 313 139 l 322 154 q 333 168 326 161 l 344 178 l 360 189 l 374 197 l 385 201 l 356 225 l 338 247 q 293 336 303 290 q 290 371 290 350 q 330 485 290 449 q 429 522 369 522 l 654 524 l 654 660 l 0 660 l 0 717 l 874 717 l 874 660 l 726 660 m 632 154 l 622 151 l 600 150 q 576 147 592 150 l 561 147 l 532 149 l 482 158 l 461 164 l 431 154 l 410 146 q 358 69 358 118 q 389 6 358 33 l 424 -10 q 467 -17 438 -14 q 518 -8 489 -17 q 581 15 560 4 l 632 44 l 654 64 l 632 154 z "},"*":{"ha":282,"x_min":71,"x_max":211,"o":"m 131 624 l 71 624 l 131 822 l 211 822 l 131 624 z "},"+":{"ha":3,"x_min":-358,"x_max":-276,"o":"m -358 -157 l -358 -79 l -276 -79 l -276 -157 l -358 -157 z "},",":{"ha":618,"x_min":0,"x_max":621,"o":"m 526 660 l 526 399 q 497 328 526 357 q 465 301 485 313 l 429 286 l 376 328 q 429 354 406 328 l 446 383 q 453 414 450 393 l 453 660 l 190 660 l 190 318 l 524 0 q 536 -25 532 -12 l 540 -54 q 488 -132 540 -103 l 465 -137 l 435 -146 l 372 -85 l 382 -87 l 404 -89 l 413 -87 l 421 -87 l 428 -85 l 436 -83 q 449 -78 446 -81 l 461 -68 l 463 -64 l 465 -60 l 468 -49 q 447 -11 468 -26 l 443 -7 l 436 -3 l 114 301 l 114 660 l 0 660 l 0 717 l 621 717 l 621 660 l 526 660 z "},"-":{"ha":233,"x_min":71,"x_max":168,"o":"m 71 0 l 71 92 l 168 92 l 168 0 l 71 0 z "},"‐":{"ha":233,"x_min":71,"x_max":168,"o":"m 71 0 l 71 92 l 168 92 l 168 0 l 71 0 z "},".":{"ha":501,"x_min":0,"x_max":513,"o":"m 458 660 l 458 418 q 447 346 458 376 q 363 254 421 275 q 293 243 331 243 q 225 254 250 243 q 132 346 157 283 q 119 411 119 375 l 119 660 l 0 660 l 0 717 l 513 717 l 513 660 l 458 660 m 385 660 l 193 660 l 193 413 q 217 332 193 364 q 288 294 242 294 q 364 333 338 294 q 379 369 372 346 l 385 417 l 385 660 z "},"/":{"ha":379,"x_min":11,"x_max":493,"o":"m 344 660 l 344 717 l 386 717 l 386 660 l 344 660 m 474 219 l 424 185 q 242 129 343 129 q 119 172 175 129 q 63 278 63 214 q 97 368 63 325 l 111 382 l 133 400 q 49 472 89 422 l 21 522 q 11 574 11 551 q 50 675 11 636 q 151 714 89 714 q 269 647 239 714 q 279 606 279 626 l 279 564 l 217 564 l 217 607 q 154 663 217 663 q 103 636 124 663 l 89 608 l 85 576 q 114 486 85 522 q 154 444 133 460 q 188 431 169 431 l 235 444 l 289 450 l 314 449 l 342 446 l 372 393 l 279 389 q 225 382 240 388 q 139 281 139 363 q 213 192 139 219 l 256 186 q 426 251 338 186 l 457 279 l 493 318 l 493 244 q 474 219 493 233 z "},":":{"ha":885,"x_min":0,"x_max":882,"o":"m 415 660 l 415 486 l 583 486 l 622 501 l 661 507 q 825 368 775 507 q 839 289 839 326 q 786 74 839 167 l 775 54 l 760 33 l 700 71 l 724 104 l 740 133 q 779 249 769 183 q 782 286 782 265 q 749 390 782 346 q 660 435 715 435 q 622 428 633 435 q 578 385 592 422 l 572 351 q 603 274 572 301 l 615 263 l 635 251 l 597 196 q 536 256 560 213 q 518 301 524 279 l 513 350 l 517 389 l 529 425 l 401 426 l 399 415 l 396 408 q 322 351 382 374 l 307 349 l 286 347 l 265 347 l 258 346 l 253 346 l 261 329 l 288 290 l 321 240 l 353 199 l 390 151 l 496 33 l 436 -6 l 400 32 l 351 90 l 288 169 l 228 254 l 160 354 l 111 436 l 97 463 l 85 490 l 144 521 l 196 432 q 265 400 218 406 q 319 421 299 400 q 336 447 331 432 l 342 485 l 342 660 l 0 660 l 0 717 l 882 717 l 882 660 l 415 660 z "},";":{"ha":700,"x_min":0,"x_max":703,"o":"m 603 660 l 603 0 l 529 0 l 529 214 q 360 151 456 151 q 176 219 251 151 q 94 408 94 294 l 106 404 l 118 400 q 131 397 128 399 l 144 397 q 231 426 196 397 q 265 517 265 456 q 231 614 265 556 l 196 658 l 0 660 l 0 717 l 703 717 l 703 660 l 603 660 m 529 660 l 285 660 l 301 632 l 313 611 l 335 557 l 342 514 q 261 372 342 421 l 226 358 l 179 346 l 183 332 l 189 321 l 193 310 l 197 301 q 350 201 247 201 q 454 233 407 201 q 499 271 482 251 l 529 314 l 529 660 z "},"<":{"ha":683,"x_min":0,"x_max":711,"o":"m 535 660 l 535 450 l 285 450 q 233 439 260 450 q 172 375 189 418 q 163 324 163 353 q 279 121 163 188 l 328 99 l 396 81 l 386 90 l 379 99 q 351 149 369 111 q 342 207 342 181 q 381 303 342 269 q 476 336 419 336 q 567 308 526 336 q 618 233 608 281 q 621 201 621 219 q 557 74 621 121 q 488 38 525 50 q 410 28 442 28 q 194 110 289 28 q 115 205 140 156 q 89 321 89 254 q 140 449 89 399 q 271 500 192 500 l 461 501 l 461 660 l 0 660 l 0 717 l 711 717 l 711 660 l 535 660 m 451 278 q 444 275 451 278 q 425 260 438 272 l 410 233 l 404 201 q 435 110 404 143 l 447 99 l 467 88 q 543 157 521 88 q 550 201 547 172 l 546 233 l 533 260 q 485 283 515 283 q 451 278 464 283 z "},"=":{"ha":728,"x_min":-3,"x_max":743,"o":"m 643 660 l 643 0 l 571 1 l 571 260 l 239 63 l 196 125 l 540 304 l 461 381 q 346 460 379 460 q 213 417 296 460 l 119 368 l 76 424 q 119 447 90 432 l 240 497 l 310 522 q 353 531 333 531 q 472 451 396 531 l 511 411 l 571 347 l 571 660 l -3 660 l -3 717 l 743 717 l 743 660 l 643 660 z "},">":{"ha":817,"x_min":0,"x_max":833,"o":"m 719 660 l 719 0 l 646 0 l 646 288 l 497 288 l 496 247 q 442 129 493 174 q 315 69 372 69 l 379 29 l 453 -3 l 410 -57 l 301 10 l 276 28 l 254 46 l 242 58 l 208 60 l 161 60 q 97 92 121 60 q 88 129 90 104 l 92 150 l 104 171 l 122 183 l 144 189 q 166 188 158 189 q 186 179 174 186 l 206 168 l 226 153 l 240 138 l 258 115 l 306 125 q 340 136 331 131 q 424 257 424 174 q 421 278 424 274 l 413 292 l 400 300 l 383 303 l 360 300 l 296 283 l 276 281 l 246 285 q 183 321 217 293 l 153 353 q 92 476 92 417 q 121 529 92 511 l 140 536 l 165 539 l 372 540 l 372 660 l 0 660 l 0 717 l 833 717 l 833 660 l 719 660 m 646 660 l 444 660 l 444 483 l 179 483 l 169 476 l 167 469 l 168 456 l 175 440 l 189 417 l 214 386 l 231 368 l 249 357 l 267 351 l 290 350 l 313 351 q 350 357 335 353 l 386 363 l 410 365 q 440 360 426 365 q 475 342 454 356 l 481 336 l 490 329 l 646 331 l 646 660 z "},"?":{"ha":450,"x_min":0,"x_max":578,"o":"m 533 200 l 499 182 q 336 138 413 138 q 265 149 297 138 q 156 232 188 175 q 142 294 142 263 q 181 390 142 351 l 196 406 l 219 425 l 186 439 l 164 453 q 108 554 108 488 l 111 582 l 121 614 l 135 642 l 149 658 l 0 660 l 0 717 l 453 717 l 453 660 l 236 660 l 219 644 l 208 633 l 186 597 q 179 560 182 586 q 215 490 179 519 q 246 471 229 479 l 279 465 l 399 467 l 424 415 l 347 415 q 303 406 326 415 q 214 294 214 378 q 253 222 214 249 q 296 200 272 208 l 347 194 q 456 222 396 194 q 500 244 469 228 l 556 279 q 578 303 574 293 l 578 228 l 533 200 z "},"@":{"ha":1085,"x_min":175,"x_max":918,"o":"m 213 -201 l 175 -154 l 869 846 l 918 811 l 213 -201 z "},"A":{"ha":550,"x_min":404,"x_max":478,"o":"m 404 -74 l 404 738 l 478 738 l 478 -74 l 404 -74 z "},"B":{"ha":683,"x_min":0,"x_max":686,"o":"m 538 660 l 538 453 l 276 453 q 231 442 249 453 q 172 371 194 425 q 165 321 165 347 q 301 117 165 188 q 376 101 339 101 q 499 144 449 101 q 550 251 550 186 q 521 339 550 296 l 508 353 l 492 371 l 540 418 q 565 401 550 418 l 596 357 q 619 281 611 328 q 621 251 621 272 q 553 105 621 163 q 376 47 485 47 q 179 126 263 47 q 92 324 92 208 q 148 461 92 411 q 288 511 204 511 l 467 513 l 467 660 l 0 660 l 0 717 l 686 717 l 686 660 l 538 660 z "},"C":{"ha":319,"x_min":0,"x_max":444,"o":"m 0 660 l 0 717 l 347 717 l 347 660 l 0 660 m 413 181 l 376 163 q 338 150 360 154 l 297 147 q 154 200 219 142 q 103 266 118 232 q 89 346 89 300 q 147 483 89 425 q 211 528 176 513 q 285 542 253 544 l 317 539 q 351 533 329 539 l 358 531 l 369 528 l 379 467 q 353 481 372 475 l 317 486 q 285 483 294 486 l 254 475 q 226 463 240 471 q 206 446 213 454 l 436 288 l 444 307 l 444 211 q 413 181 432 194 m 176 413 l 171 399 l 168 389 l 161 364 l 160 346 q 200 244 156 283 q 247 212 219 222 q 299 201 274 201 l 321 201 q 336 207 332 206 q 374 226 354 213 l 388 236 l 404 251 l 176 413 z "},"D":{"ha":583,"x_min":0,"x_max":688,"o":"m 679 465 l 667 467 l 643 464 l 607 456 q 504 346 536 439 q 496 297 496 321 l 496 0 l 424 0 l 424 206 q 294 154 372 154 q 153 209 211 154 q 94 346 94 264 q 153 478 94 422 q 251 531 194 518 q 289 535 269 535 l 326 531 l 361 519 l 361 461 l 329 472 l 299 476 q 214 442 249 476 q 171 349 179 407 q 206 250 171 289 q 246 218 222 229 q 293 207 269 207 q 394 258 343 207 q 424 314 424 288 l 424 660 l 0 660 l 0 717 l 586 717 l 586 660 l 496 660 l 496 450 l 529 478 l 560 500 l 579 510 l 599 518 l 617 522 l 636 524 q 681 514 661 525 l 688 464 l 679 465 z "},"E":{"ha":382,"x_min":0,"x_max":492,"o":"m 247 353 l 247 247 l 246 238 l 246 232 q 239 222 242 225 l 217 219 q 183 235 203 219 l 136 285 l 96 339 q 82 376 85 360 l 86 392 q 101 404 92 399 l 108 407 l 122 411 l 176 413 l 176 660 l 0 660 l 0 717 l 393 717 l 393 660 l 247 660 l 247 413 l 492 413 l 492 353 l 247 353 z "},"F":{"ha":467,"x_min":25,"x_max":586,"o":"m 547 226 l 515 203 l 469 176 l 425 158 l 379 146 l 333 143 q 204 174 271 139 q 94 263 144 203 q 61 311 72 290 l 25 383 q 78 364 46 374 l 139 358 q 272 397 217 358 q 333 519 333 439 q 297 615 333 572 q 203 657 260 657 q 140 638 165 657 q 119 610 126 626 l 114 579 q 158 518 114 538 l 176 513 l 203 508 l 203 450 l 185 450 q 63 507 101 450 q 43 582 43 535 q 146 704 43 669 q 203 714 175 714 q 281 699 246 714 q 390 594 357 674 q 404 519 404 558 q 254 325 404 369 q 146 311 207 311 l 131 313 q 160 271 139 292 l 208 235 q 328 200 268 200 q 519 285 442 200 l 551 319 l 586 371 l 586 263 l 547 226 z "},"G":{"ha":817,"x_min":0,"x_max":814,"o":"m 635 660 l 635 515 l 657 503 l 675 493 q 742 414 714 472 q 765 303 765 364 q 753 214 765 256 q 664 100 731 143 q 586 83 631 83 q 485 115 528 83 q 421 201 442 146 q 360 109 404 143 q 258 75 317 75 q 92 208 132 75 q 81 290 81 244 q 92 372 81 340 q 185 496 124 465 q 263 511 218 511 q 360 482 326 511 q 424 400 399 461 l 450 442 q 465 464 457 451 q 478 475 474 472 q 561 514 511 504 l 561 660 l 0 660 l 0 717 l 814 717 l 814 660 l 635 660 m 681 360 q 665 407 676 389 q 581 457 640 457 q 472 360 518 457 q 461 332 468 350 l 458 300 l 458 281 l 467 247 q 589 138 494 138 q 668 190 643 138 q 681 238 678 213 l 686 300 l 686 339 q 681 360 682 354 m 381 344 q 322 435 364 404 q 261 454 294 454 q 161 358 194 454 q 154 297 154 328 l 154 254 q 160 229 157 244 q 214 144 174 165 q 261 132 235 132 q 368 215 328 132 l 381 250 l 393 300 l 381 344 z "},"H":{"ha":382,"x_min":1,"x_max":507,"o":"m 342 660 l 342 717 l 396 717 l 396 660 l 342 660 m 279 347 l 279 221 l 278 213 l 267 203 l 253 200 q 217 218 239 200 q 156 274 181 244 l 103 336 q 85 374 88 360 l 89 385 l 100 396 l 113 403 l 122 406 l 206 407 l 206 601 q 188 645 206 628 q 143 663 169 663 q 115 657 131 663 l 92 644 l 76 622 l 71 593 l 72 574 l 79 553 l 82 543 l 89 531 l 19 532 l 14 542 l 13 550 l 7 569 l 6 588 q 44 682 1 647 q 146 717 88 717 q 269 646 240 717 q 279 594 279 621 l 279 407 l 507 407 l 507 347 l 279 347 z "},"I":{"ha":299,"x_min":0,"x_max":436,"o":"m 406 285 l 371 265 l 351 258 l 335 254 l 315 250 l 297 250 q 165 303 222 250 q 108 440 108 356 l 108 660 l 0 660 l 0 717 l 307 717 l 307 660 l 179 660 l 179 429 q 219 333 179 371 q 258 307 238 315 q 299 300 272 303 q 426 388 378 300 q 436 419 433 400 l 436 313 l 406 285 z "},"J":{"ha":800,"x_min":35,"x_max":803,"o":"m 703 660 l 703 0 l 626 0 l 626 344 l 271 71 l 228 131 l 486 315 l 388 367 l 358 378 l 313 401 l 293 414 l 193 344 l 82 271 l 35 325 l 144 390 q 171 406 158 394 l 201 425 l 215 435 l 233 449 l 204 465 l 186 481 q 150 528 167 497 q 139 585 139 554 q 181 680 139 646 q 282 714 224 714 q 381 680 335 714 q 426 585 426 646 q 415 533 426 560 q 385 492 407 517 l 367 476 l 343 457 l 400 424 l 494 372 l 539 354 l 626 418 l 626 660 l 478 660 l 478 717 l 803 717 l 803 660 l 703 660 m 348 611 q 345 617 348 611 q 329 638 343 624 l 303 654 l 274 660 q 224 640 249 660 l 208 617 l 203 585 q 242 513 203 544 l 267 496 l 285 490 l 304 500 q 318 511 313 504 q 353 579 351 538 q 348 611 353 599 z "},"K":{"ha":817,"x_min":0,"x_max":819,"o":"m 719 660 l 719 0 l 646 0 l 646 486 l 203 486 q 183 468 183 486 l 186 450 l 196 431 l 210 407 l 219 394 l 240 369 l 258 353 l 282 339 l 310 335 l 338 338 l 375 350 l 411 361 l 442 365 q 506 332 481 365 q 529 254 525 301 q 514 186 529 218 q 471 131 499 154 q 400 82 443 107 q 336 67 365 67 l 475 -37 l 418 -82 l 276 54 l 214 54 q 118 97 150 54 q 108 132 111 111 l 113 151 l 125 169 l 143 182 l 165 186 q 196 176 181 186 l 235 151 l 261 126 l 271 113 l 326 125 l 365 138 q 461 254 461 179 l 457 272 q 447 286 454 282 l 433 294 l 415 297 l 392 294 l 325 278 l 304 275 q 172 347 236 275 q 124 416 139 385 q 108 482 108 447 q 129 526 108 508 l 153 538 l 182 542 l 646 543 l 646 660 l 0 660 l 0 717 l 819 717 l 819 660 l 719 660 z "},"L":{"ha":515,"x_min":-14,"x_max":646,"o":"m 450 361 l 401 418 l 646 418 l 646 361 l 450 361 m 385 660 l 385 428 q 382 414 382 418 l 374 383 q 328 338 365 354 q 299 329 315 333 q 282 326 288 329 l 268 325 l 253 326 q 233 332 244 326 l 319 201 l 357 153 l 424 76 l 453 47 l 396 0 q 329 71 371 10 l 160 317 l 121 381 l 96 424 l 71 468 l 131 507 l 171 429 q 253 381 196 381 l 283 385 q 301 399 297 389 l 311 419 l 314 449 l 313 469 l 313 660 l -14 660 l -14 717 l 535 717 l 535 660 l 385 660 z "},"M":{"ha":732,"x_min":0,"x_max":743,"o":"m 626 660 l 626 478 l 331 478 l 322 467 l 321 457 l 322 442 q 329 425 325 431 l 340 403 l 361 374 l 382 349 l 403 332 l 424 319 l 444 317 l 453 317 l 458 318 l 554 346 l 589 354 l 613 357 q 668 319 644 357 l 679 285 l 683 246 q 668 151 683 193 q 554 38 638 68 q 469 24 517 24 q 267 104 369 24 q 119 254 179 172 l 76 313 l 63 340 l 117 393 q 131 363 119 379 q 168 307 136 350 q 233 224 188 278 l 301 158 q 390 101 333 128 q 469 81 432 81 q 572 124 532 81 q 613 243 613 167 q 576 289 613 289 q 544 282 565 289 q 490 264 518 278 l 461 254 l 442 251 q 308 337 374 251 q 242 476 242 422 l 246 503 q 261 521 250 517 l 285 531 l 315 533 l 556 535 l 556 660 l 0 660 l 0 717 l 743 717 l 743 660 l 626 660 z "},"N":{"ha":817,"x_min":0,"x_max":819,"o":"m 643 660 l 643 540 l 671 525 l 700 513 q 754 394 754 471 q 722 254 754 318 q 500 68 658 126 q 358 42 431 42 q 205 95 264 42 q 146 240 146 149 q 219 394 146 332 l 199 403 l 182 411 l 167 418 l 156 426 q 92 539 92 475 q 94 576 92 564 l 107 611 l 125 638 q 146 658 133 650 l 0 660 l 0 717 l 819 717 l 819 660 l 643 660 m 682 426 q 610 485 675 485 q 553 456 575 485 l 539 425 l 535 389 q 546 322 535 357 q 574 265 554 294 l 589 243 l 613 218 l 621 225 l 638 246 q 676 325 656 268 q 686 394 686 354 l 682 426 m 572 660 l 236 660 q 185 606 211 660 l 168 572 l 163 544 q 208 463 163 500 q 268 438 239 443 q 293 435 276 435 l 308 435 l 326 436 l 335 436 l 344 438 l 353 438 q 361 440 360 439 l 388 388 l 383 386 l 378 388 l 363 388 q 258 346 303 388 q 214 246 214 304 q 258 138 214 188 q 367 93 308 93 q 504 135 443 93 l 531 153 l 564 178 l 529 219 l 499 275 l 476 336 q 469 394 469 368 q 519 508 469 467 l 544 522 l 572 536 l 572 660 z "},"O":{"ha":318,"x_min":0,"x_max":447,"o":"m 0 660 l 0 717 l 322 717 l 322 660 l 0 660 m 415 193 l 385 172 l 342 157 l 299 153 q 154 207 214 153 q 105 269 121 238 q 89 346 89 301 q 145 488 89 425 q 276 547 201 551 l 301 546 l 329 542 l 353 536 q 372 533 365 536 l 388 461 l 372 469 l 360 475 l 322 486 l 285 490 q 233 481 254 490 q 174 408 197 468 q 167 358 167 385 q 240 222 167 258 q 296 213 269 213 l 311 213 q 338 218 329 217 q 379 238 360 224 q 447 297 425 258 l 447 217 l 415 193 z "},"P":{"ha":450,"x_min":0,"x_max":583,"o":"m 0 660 l 0 717 l 458 717 l 458 660 l 0 660 m 561 250 l 513 210 q 393 151 458 165 q 353 147 372 147 q 238 188 283 147 q 203 236 215 207 q 190 300 190 265 q 260 443 190 374 q 296 471 278 461 l 68 472 l 68 529 l 492 529 l 492 472 l 399 472 l 358 444 l 331 422 q 263 303 263 368 q 317 210 263 231 l 356 204 q 518 301 444 204 l 567 365 q 583 403 583 388 l 583 279 q 561 250 579 268 z "},"Q":{"ha":868,"x_min":0,"x_max":876,"o":"m 489 660 l 489 453 l 503 465 l 532 486 q 615 517 575 517 q 718 488 671 517 q 786 411 765 460 q 800 343 800 378 q 732 164 800 260 l 707 136 l 660 88 l 600 136 l 636 163 l 663 188 q 726 349 726 260 q 701 425 726 393 q 618 460 671 460 q 572 444 594 460 q 525 397 543 425 q 508 371 519 392 l 489 335 l 489 0 l 415 0 l 415 276 q 385 251 401 260 l 353 236 l 318 226 l 283 224 q 211 236 249 221 q 114 332 140 265 q 100 406 100 367 l 100 660 l 0 660 l 0 717 l 876 717 l 876 660 l 489 660 m 415 660 l 171 660 l 171 396 q 203 301 171 333 q 232 283 213 292 l 276 278 q 375 317 336 278 q 415 386 408 350 l 415 660 z "},"R":{"ha":382,"x_min":0,"x_max":510,"o":"m 0 660 l 0 717 l 385 717 l 385 660 l 0 660 m 233 447 q 193 440 207 447 q 149 371 149 432 q 174 265 149 319 q 244 150 203 197 l 310 76 q 344 53 333 56 l 296 8 l 232 65 l 188 114 q 142 176 169 133 q 79 360 79 272 q 109 458 79 417 q 196 500 139 500 l 510 501 l 510 447 l 233 447 z "},"S":{"ha":8,"x_min":-525,"x_max":-83,"o":"m -132 717 l -371 1031 l -306 1067 l -83 717 l -132 717 m -251 717 l -525 900 l -474 957 l -217 717 l -251 717 z "},"T":{"ha":567,"x_min":0,"x_max":692,"o":"m 0 660 l 0 717 l 567 717 l 567 660 l 0 660 m 493 442 l 511 419 l 536 374 l 550 335 l 556 306 q 518 188 556 235 q 393 132 472 132 q 219 224 299 132 q 163 301 190 257 q 115 396 136 344 l 88 464 q 82 490 86 472 l 142 538 q 150 483 131 526 l 206 361 q 399 186 285 186 q 478 253 457 186 q 486 300 483 271 q 456 392 486 336 q 397 474 429 442 q 376 494 382 492 l 692 496 l 692 442 l 493 442 z "},"U":{"ha":367,"x_min":0,"x_max":496,"o":"m 0 660 l 0 717 l 372 717 l 372 660 l 0 660 m 256 418 l 256 296 l 254 289 l 254 282 q 246 269 254 274 l 225 267 q 194 283 218 267 l 143 335 q 117 365 132 346 q 82 428 101 385 q 104 468 82 454 l 117 472 l 133 474 l 496 475 l 496 418 l 256 418 z "},"V":{"ha":683,"x_min":8,"x_max":692,"o":"m 549 660 l 549 444 l 301 444 q 250 433 276 444 q 185 365 207 414 q 176 318 176 347 q 244 163 176 233 q 404 93 311 93 q 554 154 493 93 l 592 201 l 651 168 q 581 90 622 119 q 415 36 504 36 q 199 122 290 36 q 103 324 103 211 q 158 455 103 404 q 285 506 213 506 l 478 507 l 478 660 l 8 660 l 8 717 l 692 717 l 692 660 l 549 660 z "},"W":{"ha":17,"x_min":-468,"x_max":-25,"o":"m -89 858 q -156 815 -119 828 q -246 801 -196 801 q -397 854 -342 801 q -468 997 -453 907 l -396 999 q -353 894 -396 933 q -244 854 -310 854 q -107 935 -149 854 q -96 997 -96 964 l -25 999 q -89 858 -25 919 z "},"X":{"ha":399,"x_min":0,"x_max":399,"o":"m 296 660 l 296 290 q 265 261 290 265 q 222 276 247 261 l 167 324 q 106 425 111 382 q 108 438 107 435 l 118 446 l 124 447 q 132 450 131 449 l 138 450 l 144 451 l 225 453 l 225 660 l 0 660 l 0 717 l 399 717 l 399 660 l 296 660 z "},"Y":{"ha":535,"x_min":0,"x_max":660,"o":"m 0 660 l 0 717 l 538 717 l 538 660 l 0 660 m 624 411 l 581 390 l 563 378 q 543 360 551 369 l 519 332 l 499 299 l 478 258 l 467 226 l 407 261 l 410 278 l 421 299 l 444 339 l 453 360 q 392 408 443 388 l 344 428 q 301 435 331 432 q 249 424 274 435 q 208 394 229 415 q 171 297 171 346 q 290 117 171 192 l 339 86 l 410 53 l 375 -6 q 188 115 304 -6 q 103 303 103 203 q 160 440 103 386 q 307 494 217 494 q 378 484 344 494 q 440 453 413 474 l 478 424 q 492 406 490 414 l 504 415 l 515 424 l 542 442 l 561 454 l 593 468 l 628 479 l 642 482 l 660 485 l 660 421 l 624 411 z "},"Z":{"ha":7,"x_min":-260,"x_max":-31,"o":"m -42 988 l -51 992 l -78 997 l -107 1000 q -173 972 -149 1000 q -197 901 -197 943 q -185 835 -197 869 q -153 774 -174 801 l -133 747 l -107 715 l -160 717 q -179 736 -172 725 l -211 786 q -229 824 -215 792 l -247 863 q -260 932 -260 900 q -215 1024 -260 990 q -108 1057 -169 1057 l -68 1053 l -31 1040 l -32 985 l -42 988 z "},"[":{"ha":651,"x_min":0,"x_max":774,"o":"m 751 292 l 733 281 l 681 258 l 656 253 q 632 251 649 251 q 483 340 532 251 q 472 403 472 369 q 511 501 472 458 q 606 554 550 543 q 638 557 619 557 l 668 553 l 700 542 l 717 492 l 685 500 l 650 504 q 608 497 624 504 q 550 450 572 492 q 543 406 543 432 q 599 318 543 339 l 635 313 q 675 318 660 313 q 750 360 714 324 q 774 392 764 374 l 774 310 l 751 292 m 711 106 l 638 74 l 560 51 q 486 44 514 44 q 386 56 426 44 q 211 175 285 83 q 131 306 158 242 l 107 361 l 68 474 l 131 507 l 154 429 l 163 421 l 171 415 l 193 406 l 219 403 l 247 407 q 281 439 274 415 l 285 465 l 285 660 l 0 660 l 0 717 l 663 717 l 663 660 l 356 660 l 356 461 q 299 369 356 399 l 249 356 l 185 351 l 218 278 l 251 226 q 355 135 289 168 q 492 101 421 101 q 636 133 564 101 l 683 154 q 718 175 692 158 q 774 218 754 199 l 774 146 l 711 106 z "},"\\":{"ha":567,"x_min":35,"x_max":521,"o":"m 443 547 q 268 446 342 446 l 268 244 l 196 244 l 196 478 q 325 536 233 478 q 450 713 450 615 q 400 829 450 778 q 285 881 350 881 q 147 836 224 881 q 104 808 117 818 q 88 788 92 797 l 35 849 l 75 874 l 108 893 q 279 940 189 940 q 412 903 349 940 q 503 806 475 867 q 521 721 521 765 q 443 547 521 625 m 193 0 l 193 76 l 274 76 l 274 0 l 193 0 z "},"]":{"ha":250,"x_min":51,"x_max":193,"o":"m 111 -117 l 51 -117 l 108 79 l 193 79 l 111 -117 z "},"^":{"ha":265,"x_min":94,"x_max":236,"o":"m 179 640 l 94 640 l 176 839 l 236 839 l 179 640 z "},"_":{"ha":1133,"x_min":0,"x_max":1147,"o":"m 597 660 l 597 369 l 765 447 l 757 461 l 756 481 q 761 511 754 496 q 801 560 769 543 q 833 568 813 565 q 906 482 906 568 q 875 433 906 456 l 861 425 l 843 414 l 950 279 l 906 267 q 876 256 896 264 q 803 161 803 222 q 811 115 803 136 q 836 85 819 100 l 868 69 l 908 64 q 963 75 936 64 q 1017 108 999 90 l 1035 126 l 1058 153 l 1110 94 l 1079 68 l 1054 51 l 1018 33 l 985 21 l 949 13 l 914 10 q 838 21 879 7 q 726 164 726 54 q 765 263 726 226 q 865 306 811 306 l 789 399 l 597 307 l 597 0 l 524 0 l 524 276 l 225 54 l 179 117 l 492 319 l 419 397 q 315 476 353 471 q 183 429 275 476 l 89 381 l 46 436 l 78 453 l 164 492 l 264 531 q 322 544 289 540 q 371 524 340 544 q 444 457 413 492 l 504 390 q 524 360 519 372 l 524 660 l 0 660 l 0 717 l 1147 717 l 1147 660 l 597 660 z "},"`":{"ha":7,"x_min":-357,"x_max":-11,"o":"m -33 -290 l -54 -300 q -169 -324 -104 -324 q -235 -312 -211 -324 q -342 -232 -312 -292 q -357 -165 -357 -200 q -346 -104 -357 -131 q -269 -24 -331 -54 q -212 -14 -240 -14 l -97 -14 l -97 -71 l -196 -71 q -275 -122 -251 -71 q -283 -160 -281 -136 q -246 -236 -283 -212 q -158 -267 -210 -267 q -94 -254 -118 -267 l -62 -237 l -47 -222 l -11 -276 l -33 -290 z "},"a":{"ha":3,"x_min":-132,"x_max":-36,"o":"m -132 872 l -132 963 l -36 963 l -36 872 l -132 872 z "},"b":{"ha":618,"x_min":0,"x_max":626,"o":"m 469 660 l 469 478 l 179 478 l 175 472 l 171 465 l 172 446 l 178 431 l 190 410 l 211 383 l 251 339 l 274 321 l 293 317 q 361 329 321 317 q 397 342 371 332 l 431 351 l 458 354 q 514 324 492 354 q 529 289 522 311 l 535 251 q 519 164 535 207 q 446 67 500 108 q 411 42 428 53 q 344 24 375 24 l 360 7 l 374 -3 l 404 -29 l 429 -51 l 485 -87 l 524 -111 l 486 -171 l 465 -157 l 450 -147 q 408 -115 432 -136 l 338 -54 l 303 -19 l 276 4 l 265 18 l 217 18 q 171 25 201 19 q 150 32 163 26 q 85 121 85 54 l 89 144 q 103 167 93 157 l 122 181 l 149 186 q 250 132 196 186 l 268 108 l 293 78 q 342 85 319 78 q 376 96 364 88 q 461 229 467 136 l 460 256 q 458 278 458 272 q 450 289 457 285 l 436 294 l 414 289 l 368 272 l 315 257 l 276 251 q 154 341 219 251 q 89 474 89 431 l 93 494 l 108 514 l 131 528 l 154 533 l 396 535 l 396 660 l 0 660 l 0 717 l 626 717 l 626 660 l 469 660 z "},"c":{"ha":618,"x_min":0,"x_max":618,"o":"m 518 660 l 518 0 l 444 0 l 444 211 q 413 181 432 194 l 376 163 q 338 150 360 154 l 297 147 q 154 200 219 142 q 103 266 118 232 q 89 346 89 300 q 147 483 89 425 q 211 528 176 513 q 285 542 253 544 l 317 539 q 351 533 329 539 l 358 531 l 369 528 l 379 467 q 353 481 372 475 l 317 486 q 285 483 294 486 l 254 475 q 226 463 240 471 q 206 446 213 454 l 436 288 l 444 318 l 444 660 l 0 660 l 0 717 l 615 717 l 618 660 l 518 660 m 176 413 l 171 399 l 168 389 l 161 364 l 160 346 q 200 244 156 283 q 247 212 219 222 q 299 201 274 201 l 321 201 q 336 207 332 206 q 374 226 354 213 l 388 236 l 404 251 l 176 413 z "},"d":{"ha":885,"x_min":0,"x_max":896,"o":"m 496 660 l 496 450 l 521 474 l 538 488 q 635 522 579 522 q 771 469 713 522 q 825 343 825 421 q 753 174 825 263 l 722 136 l 681 90 l 621 136 q 643 151 631 139 q 733 282 704 213 q 749 349 749 319 q 735 417 749 388 q 643 465 710 465 q 538 404 586 465 q 508 351 519 381 q 496 297 496 321 l 496 0 l 424 0 l 424 206 q 294 154 372 154 q 155 208 215 154 q 94 346 94 263 q 151 481 94 429 q 249 531 193 518 q 286 535 267 535 l 324 531 q 361 519 349 525 l 361 461 l 347 467 l 340 471 l 319 476 l 299 479 q 207 438 240 479 q 174 339 174 396 q 242 217 174 250 q 293 207 267 207 q 394 258 343 207 q 424 314 424 288 l 424 660 l 0 660 l 0 717 l 896 717 l 896 660 l 496 660 z "},"e":{"ha":656,"x_min":0,"x_max":678,"o":"m 574 660 l 574 0 l 501 0 l 501 350 l 247 350 l 247 253 l 249 238 q 246 229 247 231 l 235 221 l 217 218 q 161 254 194 218 q 90 338 135 281 q 76 374 78 357 l 81 392 q 96 404 86 399 l 103 407 l 117 411 l 176 413 l 176 660 l 0 660 l 0 717 l 678 717 l 678 660 l 574 660 m 501 660 l 247 660 l 247 413 l 501 413 l 501 660 z "},"f":{"ha":300,"x_min":0,"x_max":836,"o":"m 743 717 l 708 747 l 675 781 q 626 824 647 808 q 593 847 604 840 l 510 903 q 406 953 465 932 q 315 969 356 969 q 260 958 283 969 q 181 878 208 942 q 171 813 169 840 l 172 785 l 179 753 l 188 726 l 193 715 l 314 717 l 314 660 l 196 660 l 196 0 l 122 0 l 122 660 l 0 660 l 0 717 l 126 717 l 121 729 l 113 764 l 104 801 l 103 824 q 135 938 99 886 q 232 1014 172 990 q 319 1029 274 1029 q 557 949 424 1029 q 654 881 613 915 l 754 797 l 794 756 l 836 715 l 743 717 z "},"g":{"ha":632,"x_min":0,"x_max":660,"o":"m 521 660 l 521 481 l 190 481 q 172 474 178 481 l 167 461 l 172 438 q 190 408 175 425 l 196 397 l 204 388 l 221 365 l 235 349 l 244 343 l 265 347 l 288 351 l 329 357 l 361 360 q 447 351 397 363 q 553 281 528 331 q 567 218 567 253 q 538 136 572 168 l 508 114 l 499 107 l 444 149 l 451 151 l 458 156 l 464 158 l 468 163 q 493 218 489 183 q 413 300 493 292 l 356 306 q 192 225 226 306 q 179 169 179 199 q 217 92 179 126 q 332 35 258 53 l 450 6 q 482 4 464 4 q 496 7 494 4 l 469 -46 q 444 -51 463 -51 q 336 -29 403 -51 q 283 -11 319 -24 q 103 178 103 50 q 125 247 103 213 q 151 281 136 265 l 185 314 l 156 344 l 138 368 q 100 428 111 401 q 89 479 93 447 l 93 504 q 108 524 97 514 l 129 535 l 154 539 l 447 540 l 447 660 l 0 660 l 0 717 l 660 717 l 660 660 l 521 660 z "},"h":{"ha":299,"x_min":-293,"x_max":311,"o":"m 194 660 l 194 0 l 122 0 l 122 660 l 0 660 l 0 717 l 106 717 q 107 722 107 718 q -4 883 107 756 q -121 961 -72 961 q -190 926 -167 961 q -214 868 -206 903 q -215 842 -215 858 q -210 806 -215 825 q -194 764 -201 778 l -176 729 l -167 715 l -247 717 l -264 739 l -278 767 l -287 797 l -290 829 q -278 897 -293 854 q -124 1015 -237 1015 q -21 978 -74 1015 q 89 865 46 931 l 129 803 l 179 715 l 311 717 l 311 660 l 194 660 z "},"i":{"ha":618,"x_min":0,"x_max":638,"o":"m 524 660 l 524 0 l 450 0 l 450 276 l 425 256 l 407 243 q 301 210 358 210 q 122 328 181 210 q 108 403 108 365 l 108 660 l 0 660 l 0 717 l 638 717 l 638 660 l 524 660 m 450 660 l 179 660 l 179 393 q 257 271 179 313 q 299 264 269 267 q 383 290 342 264 q 410 311 400 301 l 428 331 l 450 360 l 450 660 z "},"j":{"ha":517,"x_min":-28,"x_max":540,"o":"m 429 660 l 429 478 q 335 350 429 385 q 279 340 306 339 l 253 342 q 228 349 236 344 l 328 206 l 367 157 l 439 78 l 469 47 l 418 0 q 340 75 394 10 q 206 254 269 158 l 163 318 l 122 385 l 93 435 l 65 485 l 122 526 l 179 429 q 258 394 200 394 q 328 416 307 394 q 356 485 350 438 l 356 660 l -28 660 l -28 717 l 540 717 l 540 660 l 429 660 z "},"k":{"ha":299,"x_min":-14,"x_max":331,"o":"m 196 660 l 196 0 l 122 0 l 122 660 l -14 660 l -14 717 l 331 717 l 331 660 l 196 660 z "},"l":{"ha":817,"x_min":-14,"x_max":833,"o":"m 719 660 l 719 0 l 646 0 l 646 361 l 450 361 l 401 418 l 646 418 l 646 660 l 385 660 l 385 428 q 382 414 382 418 l 374 383 q 328 338 365 354 q 299 329 315 333 q 282 326 288 329 l 268 325 l 253 326 q 233 332 244 326 l 319 201 l 357 153 l 424 76 l 453 47 l 396 0 q 329 71 371 10 l 160 317 l 121 381 l 96 424 l 71 468 l 131 507 l 171 429 q 253 381 196 381 l 283 385 q 301 399 297 389 l 311 419 l 314 449 l 313 469 l 313 660 l -14 660 l -14 717 l 833 717 l 833 660 l 719 660 z "},"m":{"ha":751,"x_min":-14,"x_max":765,"o":"m 569 660 l 586 636 l 597 619 q 619 571 610 601 q 626 525 624 547 q 553 397 626 446 l 581 385 q 638 326 613 368 q 669 210 669 274 q 654 136 669 171 q 467 24 606 24 q 258 139 361 24 q 122 354 179 229 l 85 438 q 76 474 75 467 l 139 513 l 160 456 l 182 400 q 215 325 199 358 q 238 283 219 317 q 424 88 331 119 q 467 81 443 81 q 529 92 506 81 q 571 126 553 104 q 594 218 594 163 q 575 303 594 264 q 515 363 556 343 q 461 375 490 375 l 333 376 l 307 436 l 458 436 l 499 440 q 525 451 517 444 q 558 531 558 475 q 522 618 558 568 l 507 635 l 486 658 l -14 660 l -14 717 l 765 717 l 765 660 l 569 660 z "},"n":{"ha":683,"x_min":0,"x_max":697,"o":"m 546 660 l 546 472 l 290 472 q 221 439 254 472 l 199 404 q 192 367 194 393 q 313 194 192 239 l 363 183 l 435 178 q 432 186 433 185 l 432 193 q 429 214 432 207 l 428 229 q 431 260 428 250 l 443 288 q 501 314 460 314 q 526 307 515 314 q 564 265 550 299 l 569 238 q 543 168 569 192 l 532 158 l 515 147 l 550 71 l 574 31 l 597 -1 l 607 -12 l 618 -28 l 526 -28 l 489 46 l 450 128 l 439 125 l 429 125 q 249 160 321 125 q 152 241 182 192 q 122 365 122 290 q 163 479 122 428 q 261 531 203 531 l 467 532 l 467 660 l 0 660 l 0 717 l 697 717 l 697 660 l 546 660 z "},"o":{"ha":618,"x_min":-14,"x_max":649,"o":"m 521 660 l 521 0 l 447 0 l 447 217 l 415 193 l 385 172 l 342 157 l 299 153 q 154 207 214 153 q 105 269 121 238 q 89 346 89 301 q 145 488 89 425 q 276 547 201 551 l 301 546 l 329 542 l 353 536 q 372 533 365 536 l 388 461 l 372 469 l 360 475 l 322 486 l 285 490 q 233 481 254 490 q 174 408 197 468 q 167 358 167 385 q 240 222 167 258 q 296 213 269 213 l 311 213 q 338 218 329 217 q 379 238 360 224 q 447 297 425 258 l 447 660 l -14 660 l -14 717 l 649 717 l 649 660 l 521 660 z "},"p":{"ha":751,"x_min":0,"x_max":757,"o":"m 660 660 l 660 0 l 586 0 l 586 276 q 564 249 582 267 l 514 208 q 431 164 482 183 q 353 147 389 147 q 238 188 283 147 q 203 236 215 207 q 190 300 190 265 q 260 443 190 374 q 296 471 278 461 l 68 472 l 68 529 l 492 529 l 492 472 l 399 472 l 358 444 l 331 422 q 263 303 263 368 q 317 210 263 231 l 356 204 q 519 282 436 204 q 549 310 533 294 q 586 368 586 350 l 586 660 l 0 660 l 0 717 l 757 717 l 757 660 l 660 660 z "},"q":{"ha":7,"x_min":-528,"x_max":14,"o":"m -61 -282 q -212 -322 -126 -322 q -371 -285 -282 -322 q -425 -260 -412 -265 q -469 -235 -453 -246 q -528 -193 -512 -210 l -481 -133 l -429 -171 l -390 -197 q -210 -261 -296 -261 q -65 -192 -107 -261 q -56 -146 -56 -175 q -65 -111 -58 -128 l -86 -83 q -111 -62 -94 -72 l -143 -57 q -215 -83 -176 -57 l -246 -114 l -301 -65 l -285 -50 l -249 -29 q -162 0 -212 -8 q -135 1 -154 1 q -29 -37 -68 1 q 4 -86 -8 -58 q 14 -149 14 -118 q -61 -282 14 -236 z "},"r":{"ha":683,"x_min":-14,"x_max":708,"o":"m 581 660 l 581 0 l 507 0 l 507 461 l 247 461 q 204 453 224 461 q 157 406 172 446 l 151 371 q 210 182 151 275 q 315 58 271 85 q 342 50 329 50 l 293 0 q 275 11 286 0 l 236 49 l 179 113 q 156 146 174 118 q 135 181 151 153 q 79 371 79 278 q 111 475 79 432 q 151 507 125 494 q 203 519 176 519 l 507 521 l 507 660 l -14 660 l -14 717 l 708 717 l 708 660 l 581 660 z "},"s":{"ha":4,"x_min":-453,"x_max":-119,"o":"m -165 717 l -453 1014 l -404 1067 l -119 717 l -165 717 z "},"t":{"ha":885,"x_min":0,"x_max":896,"o":"m 782 660 l 782 0 l 708 0 l 708 429 l 493 429 q 511 401 501 424 l 536 340 l 550 292 l 556 254 q 544 189 556 221 q 463 101 525 131 q 393 90 432 90 q 215 189 299 90 q 114 374 156 261 l 88 446 l 82 476 l 142 521 l 142 510 q 144 492 142 500 l 169 414 q 256 242 199 322 q 399 144 324 144 q 465 178 442 144 q 486 251 486 207 q 474 324 486 286 q 433 406 456 374 l 397 458 q 376 482 386 475 l 708 483 l 708 660 l 0 660 l 0 717 l 896 717 l 896 660 l 782 660 z "},"u":{"ha":683,"x_min":0,"x_max":703,"o":"m 589 660 l 589 0 l 515 0 l 515 413 l 256 413 l 256 293 l 254 274 q 251 264 253 265 l 240 254 l 225 251 q 194 269 217 251 l 143 324 q 99 385 119 349 q 82 422 85 407 q 104 463 82 449 l 117 467 l 133 468 l 515 469 l 515 660 l 0 660 l 0 717 l 703 717 l 703 660 l 589 660 z "},"v":{"ha":800,"x_min":6,"x_max":803,"o":"m 703 660 l 703 0 l 632 0 l 632 315 l 611 310 l 590 306 l 572 303 l 561 303 l 536 304 l 493 317 l 478 324 l 482 310 l 486 300 l 493 268 l 496 238 q 354 64 496 89 q 315 61 338 61 q 205 93 260 61 q 96 189 150 125 q 6 332 6 294 l 63 369 l 106 293 l 140 242 q 318 115 225 115 q 417 193 383 115 q 426 240 426 215 q 415 297 426 274 q 366 356 404 335 q 285 378 328 378 l 261 378 q 232 372 246 378 l 225 369 l 217 368 l 193 421 q 253 426 231 421 q 351 496 318 443 q 367 551 367 522 q 361 593 367 576 q 314 649 353 631 q 265 658 292 658 q 188 632 229 658 q 158 610 169 619 l 136 589 l 108 560 l 54 603 q 69 622 56 608 l 115 660 q 271 715 183 715 q 389 664 339 715 q 432 551 432 619 q 353 419 432 461 l 360 418 l 372 415 q 389 408 385 411 l 413 397 l 425 390 l 439 385 l 454 376 l 469 371 l 501 360 l 538 357 l 565 358 l 614 371 l 632 378 l 632 660 l 499 660 l 499 717 l 803 717 l 803 660 l 703 660 z "},"w":{"ha":3,"x_min":-314,"x_max":182,"o":"m 119 -315 q 101 -267 119 -299 q 74 -224 96 -257 q 49 -187 60 -201 q -45 -92 1 -122 q -144 -62 -92 -62 q -208 -89 -187 -62 q -233 -158 -228 -115 q -185 -240 -233 -219 q -150 -247 -175 -244 l -128 -244 l -104 -235 l -94 -229 l -83 -222 l -46 -279 l -64 -287 q -108 -300 -79 -294 l -153 -304 q -266 -261 -218 -304 q -314 -154 -314 -218 q -264 -44 -314 -94 q -147 0 -211 0 q 86 -131 -28 0 q 142 -208 122 -171 l 161 -244 l 182 -282 l 119 -315 z "},"x":{"ha":726,"x_min":0,"x_max":744,"o":"m 589 660 l 589 0 l 515 0 l 515 660 l 296 660 l 296 264 q 285 243 293 250 l 265 238 q 222 254 250 238 q 121 365 158 301 q 106 411 106 392 q 108 425 106 421 l 117 432 l 129 433 l 144 435 l 225 436 l 225 660 l 0 660 l 0 717 l 744 717 l 744 660 l 589 660 z "},"y":{"ha":836,"x_min":0,"x_max":847,"o":"m 732 660 l 732 0 l 660 0 l 660 421 l 624 411 l 581 390 l 563 378 q 543 360 551 369 l 519 332 l 499 299 l 478 258 l 467 226 l 407 261 l 410 278 l 421 299 l 444 339 l 453 360 q 392 408 443 388 l 344 428 q 301 435 331 432 q 249 424 274 435 q 208 394 229 415 q 171 297 171 346 q 290 117 171 192 l 339 86 l 410 53 l 375 -6 q 188 115 304 -6 q 103 303 103 203 q 160 440 103 386 q 307 494 217 494 q 378 484 344 494 q 440 453 413 474 l 478 424 q 492 406 490 414 l 504 415 l 515 424 l 542 442 l 561 454 l 593 465 l 628 475 l 642 476 l 660 479 l 660 660 l 0 660 l 0 717 l 847 717 l 847 660 l 732 660 z "},"z":{"ha":7,"x_min":-543,"x_max":-157,"o":"m -496 0 l -543 54 l -157 296 l -157 239 l -496 0 z "},"{":{"ha":435,"x_min":14,"x_max":564,"o":"m 407 660 l 407 717 l 442 717 l 442 660 l 407 660 m 515 390 l 476 379 l 433 372 l 379 371 l 326 375 l 260 389 l 231 396 l 193 408 q 171 399 183 408 l 139 374 q 88 269 88 325 q 101 208 88 233 q 135 175 111 189 l 172 160 l 221 156 l 249 156 l 256 158 l 253 164 l 253 186 l 257 219 l 269 242 q 289 254 281 253 l 315 260 q 344 256 333 260 q 368 238 356 251 l 382 214 l 388 186 l 383 163 l 374 144 q 357 131 369 138 l 333 124 l 349 97 l 369 75 l 389 57 l 418 36 l 358 -6 l 346 4 l 318 32 l 299 61 l 292 74 l 285 88 l 279 104 l 265 99 l 256 97 l 231 92 l 211 90 q 133 103 175 88 q 28 199 64 128 q 14 275 14 236 q 29 335 14 307 q 76 394 44 363 l 103 415 l 139 440 q 111 463 128 446 l 83 506 q 65 547 72 522 l 60 589 q 101 681 60 647 q 204 714 143 714 q 313 679 265 714 q 361 581 361 644 q 335 507 361 542 q 313 483 328 500 l 292 465 l 263 446 l 275 440 l 288 439 l 331 432 l 379 431 l 435 432 q 478 439 460 432 l 518 453 q 564 476 540 460 l 564 413 l 515 390 m 282 613 q 279 619 282 613 q 264 636 276 625 l 238 650 l 208 656 q 178 650 189 656 l 153 638 q 136 615 142 629 l 131 586 q 163 503 131 539 l 175 489 l 196 474 q 222 485 213 479 l 242 496 q 288 586 288 531 q 282 613 288 601 z "},"|":{"ha":817,"x_min":0,"x_max":825,"o":"m 724 660 l 724 0 l 651 0 l 651 201 q 511 107 636 164 q 378 67 443 75 q 336 64 357 64 q 158 163 207 64 q 149 215 149 192 q 154 258 149 240 q 169 296 158 283 l 178 306 l 190 318 q 121 363 163 318 q 89 425 96 388 q 88 449 88 432 q 149 544 88 515 l 174 550 l 211 554 l 390 556 l 390 660 l 0 660 l 0 717 l 825 717 l 825 660 l 724 660 m 651 660 l 458 660 l 458 496 l 233 496 q 201 493 211 496 q 163 474 175 493 l 157 443 q 179 388 157 415 l 208 360 q 233 351 221 351 l 243 354 l 250 357 l 288 369 l 313 374 l 364 374 l 404 371 l 429 315 l 421 314 l 374 314 l 365 315 q 250 289 276 315 q 219 218 219 261 q 257 147 219 172 q 297 126 278 133 l 344 121 q 550 194 435 121 q 604 229 592 221 q 651 272 643 257 l 651 660 z "},"}":{"ha":683,"x_min":0,"x_max":681,"o":"m 532 660 l 532 469 l 261 469 q 222 464 239 469 q 192 447 204 458 q 174 415 179 436 l 168 371 q 290 213 168 263 q 367 201 326 201 l 381 203 l 401 206 l 426 210 l 425 222 q 432 247 425 233 q 507 324 453 324 q 565 283 551 324 l 569 258 q 550 194 569 225 q 524 168 539 178 q 493 161 514 164 l 499 136 l 503 119 l 513 79 l 528 32 l 533 18 l 538 4 l 542 -8 l 549 -37 l 551 -61 q 549 -81 551 -75 l 542 -96 l 529 -107 l 510 -114 l 469 6 l 449 -12 q 404 -42 432 -26 q 328 -73 367 -61 q 253 -85 289 -85 q 131 -39 190 -85 q 71 75 71 7 q 104 157 71 124 q 188 201 143 196 l 160 225 l 142 247 q 106 307 122 272 q 94 371 94 340 q 134 485 94 449 q 233 522 174 522 l 458 524 l 458 660 l 0 660 l 0 717 l 681 717 l 681 660 l 532 660 m 436 154 l 419 150 l 385 147 l 369 147 l 346 149 l 242 160 l 201 156 q 151 113 165 144 q 144 69 144 97 q 176 1 144 31 q 211 -18 189 -10 q 253 -25 222 -22 q 319 -14 285 -25 q 393 17 344 -7 l 438 44 q 458 64 456 58 l 436 154 z "},"~":{"ha":7,"x_min":-214,"x_max":0,"o":"m -29 -285 l -214 -82 l -151 -51 l 0 -253 l -29 -285 z "},"Ä":{"ha":744,"x_min":0,"x_max":761,"o":"m 504 185 l 460 165 l 394 144 q 336 138 363 138 q 265 149 297 138 q 156 232 188 175 q 142 294 142 263 q 181 390 142 351 l 196 406 l 219 425 l 186 439 l 164 453 q 108 554 108 488 l 111 582 l 121 614 l 135 642 l 149 658 l 0 660 l 0 717 l 761 717 l 761 660 l 626 660 l 626 0 l 553 0 l 553 213 l 504 185 m 553 660 l 236 660 l 219 644 l 208 633 l 186 597 q 179 560 182 586 q 215 490 179 519 q 246 471 229 479 l 279 465 l 399 467 l 424 415 l 347 415 q 303 406 326 415 q 214 294 214 378 q 253 222 214 249 q 296 200 272 208 l 347 194 q 431 211 381 194 q 486 236 467 224 q 506 249 492 239 l 553 281 l 553 660 z "},"Å":{"ha":933,"x_min":0,"x_max":947,"o":"m 507 660 l 524 636 l 535 619 q 557 571 547 601 q 564 525 561 547 q 486 394 564 440 l 526 367 l 536 356 l 553 338 l 556 333 l 561 329 l 586 356 l 607 376 l 636 397 l 665 413 l 693 422 l 722 425 q 829 377 785 425 q 874 267 874 329 q 865 204 874 236 q 838 136 856 172 q 754 10 796 51 l 689 49 l 722 88 l 747 119 q 806 269 806 194 l 801 306 l 789 336 q 719 371 768 371 q 628 319 679 371 l 611 297 l 592 267 l 592 246 l 593 236 q 564 106 593 154 q 404 24 515 24 q 211 132 293 24 q 110 333 144 221 l 86 411 q 82 446 81 440 l 142 492 l 167 385 q 249 189 193 272 q 322 108 286 133 q 401 83 357 83 q 499 125 471 83 l 513 161 l 518 213 q 511 267 518 249 q 493 313 508 292 q 415 360 467 360 l 307 361 l 279 421 l 407 421 l 432 429 q 450 440 443 433 q 493 531 493 474 q 457 618 493 568 l 442 635 l 421 658 l 0 660 l 0 717 l 947 717 l 947 660 l 507 660 z "},"Ç":{"ha":300,"x_min":0,"x_max":867,"o":"m 743 717 l 708 747 l 675 781 q 626 824 647 808 q 593 847 604 840 l 510 903 q 406 953 465 932 q 315 969 356 969 q 260 958 283 969 q 181 878 208 942 q 171 813 169 840 l 172 785 l 179 753 l 188 726 l 193 715 l 314 717 l 314 660 l 196 660 l 196 0 l 122 0 l 122 660 l 0 660 l 0 717 l 126 717 l 121 729 l 113 764 l 104 801 l 103 824 q 135 938 99 886 q 232 1014 172 990 q 319 1029 274 1029 q 557 949 424 1029 q 654 881 613 915 l 754 797 l 794 756 l 836 715 l 743 717 m 771 851 l 771 942 l 867 942 l 867 851 l 771 851 z "},"É":{"ha":299,"x_min":0,"x_max":897,"o":"m 811 836 l 811 914 l 893 914 l 893 836 l 811 836 m 886 988 l 878 992 l 851 997 l 825 1000 q 756 973 783 1000 q 729 901 729 946 q 742 839 729 868 q 776 774 757 800 l 796 747 l 825 715 l 743 717 l 708 747 l 675 781 q 626 824 647 808 q 593 847 604 840 l 510 903 q 406 953 465 932 q 315 969 356 969 q 260 958 283 969 q 181 878 208 942 q 171 813 169 840 l 172 785 l 181 754 l 190 726 l 196 715 l 296 717 l 296 660 l 196 660 l 196 0 l 122 0 l 122 660 l 0 660 l 0 717 l 128 717 l 124 721 l 119 739 l 107 785 l 103 824 q 163 969 103 910 q 319 1029 222 1029 q 438 1006 374 1029 q 568 939 517 976 q 619 901 581 932 q 683 847 639 886 l 678 858 l 676 868 l 671 897 l 669 932 q 757 1049 667 1018 q 814 1057 782 1057 l 858 1053 l 897 1040 l 897 985 l 886 988 z "},"Ñ":{"ha":885,"x_min":0,"x_max":882,"o":"m 496 660 l 496 450 l 521 474 l 538 488 q 635 522 579 522 q 771 469 713 522 q 825 343 825 421 q 753 174 825 263 l 722 136 l 681 90 l 621 136 q 643 151 631 139 q 733 282 704 213 q 749 349 749 319 q 735 417 749 388 q 643 465 710 465 q 538 404 586 465 q 508 351 519 381 q 496 297 496 321 l 496 0 l 424 0 l 424 206 q 294 154 372 154 q 155 208 215 154 q 94 346 94 263 q 151 481 94 429 q 249 531 193 518 q 286 535 267 535 l 324 531 q 361 519 349 525 l 361 461 l 328 472 l 297 476 q 208 440 247 476 q 181 399 196 428 q 171 349 171 374 q 206 250 171 289 q 246 218 222 229 q 293 207 269 207 q 394 258 343 207 q 424 314 424 288 l 424 660 l 0 660 l 0 717 l 882 717 l 882 660 l 496 660 m 560 -276 l 540 -286 q 426 -310 478 -310 q 360 -299 389 -310 q 254 -214 290 -279 q 239 -149 239 -186 q 325 -10 239 -51 q 382 0 354 0 l 496 0 l 496 -54 l 401 -54 q 340 -79 365 -54 q 318 -110 326 -93 l 313 -144 q 322 -187 313 -169 q 369 -233 332 -211 q 439 -249 397 -249 q 549 -208 503 -249 l 583 -262 l 560 -276 z "},"Ö":{"ha":515,"x_min":0,"x_max":646,"o":"m 635 275 l 625 275 l 614 274 l 606 274 l 586 271 l 547 271 q 531 274 536 271 l 522 275 q 514 278 515 276 l 504 281 l 496 286 l 496 247 q 442 129 496 176 q 315 69 372 69 l 379 29 l 453 -3 l 410 -57 l 301 10 l 276 28 l 254 46 l 242 58 l 208 60 l 161 60 q 97 92 121 60 q 88 129 90 104 l 92 150 l 104 171 l 122 183 l 144 189 q 166 188 158 189 q 186 179 174 186 l 206 168 l 226 153 l 240 138 l 258 115 l 306 125 q 340 136 331 131 q 424 257 424 174 q 421 278 424 274 l 413 292 l 400 300 l 383 303 l 360 300 l 296 283 l 276 281 l 246 285 q 183 321 217 293 l 153 353 q 92 476 92 417 q 121 529 92 511 l 140 536 l 165 539 l 372 540 l 372 660 l 0 660 l 0 717 l 521 717 l 521 660 l 444 660 l 444 483 l 179 483 l 169 476 l 167 469 l 168 456 l 175 440 l 189 417 l 214 386 l 231 368 l 249 357 l 267 351 l 290 350 l 313 351 q 350 357 335 353 l 386 363 l 410 365 q 453 353 435 365 l 475 338 l 489 332 l 525 321 l 560 318 l 599 322 q 633 336 611 325 l 639 339 l 646 346 l 646 276 l 635 275 z "},"Ü":{"ha":515,"x_min":51,"x_max":640,"o":"m 404 367 l 375 378 l 329 401 l 310 414 l 208 344 l 181 324 l 140 297 l 94 269 l 51 325 l 185 404 l 250 449 l 221 468 l 203 486 q 154 593 154 535 q 197 687 154 653 q 296 721 239 721 q 397 686 350 721 q 440 619 431 660 q 442 593 442 610 q 439 568 442 578 l 432 544 q 418 519 428 531 l 401 494 l 385 475 l 361 454 l 374 446 l 386 439 l 397 432 l 410 426 l 453 403 q 483 388 464 400 l 640 311 l 640 244 l 404 367 m 365 619 q 362 626 365 619 q 346 646 360 632 l 319 663 l 290 668 q 240 649 265 668 l 225 625 l 219 593 q 243 531 219 554 q 301 490 274 493 l 321 504 l 335 517 q 369 588 368 547 q 365 619 369 607 z "},"á":{"ha":933,"x_min":0,"x_max":931,"o":"m 831 660 l 831 0 l 757 0 l 757 157 q 539 60 665 60 q 336 169 410 60 l 343 169 l 349 168 l 363 168 q 457 211 433 168 q 467 251 467 229 q 461 286 467 274 q 442 307 456 299 l 436 308 l 431 311 l 424 311 q 415 314 417 313 l 250 315 q 222 303 239 315 q 194 274 213 296 q 174 231 182 254 l 168 181 q 238 68 168 121 q 294 29 254 54 l 376 -11 q 426 -25 407 -22 l 375 -74 q 232 -7 353 -82 q 131 82 167 33 q 94 178 90 133 l 99 231 q 114 269 100 254 l 132 290 l 168 326 l 144 353 l 129 375 q 89 479 89 433 l 93 504 q 108 524 97 514 l 129 535 l 154 539 l 447 540 l 447 660 l 0 660 l 0 717 l 931 717 l 931 660 l 831 660 m 757 660 l 521 660 l 521 481 l 190 481 q 169 472 178 481 q 164 456 167 469 l 168 432 q 183 404 172 418 l 203 381 l 219 368 l 450 369 l 476 357 q 494 346 489 351 q 540 260 540 311 q 508 171 540 203 l 494 157 l 475 143 l 497 132 l 519 124 l 540 117 l 556 115 q 632 133 593 115 q 704 186 679 156 l 728 215 l 757 257 l 757 660 z "},"à":{"ha":618,"x_min":0,"x_max":632,"o":"m 443 189 l 443 108 q 436 94 439 97 l 425 92 q 407 103 419 92 l 376 136 l 349 172 l 339 193 l 340 204 q 346 213 343 211 l 354 217 l 369 221 l 599 222 l 600 304 l 318 304 q 264 293 286 304 q 219 264 246 288 q 179 169 179 229 q 340 36 179 78 l 386 31 q 421 25 396 29 l 501 15 l 478 -35 l 447 -36 q 326 -18 422 -37 q 276 -4 294 -11 q 126 93 171 25 q 103 178 103 129 q 125 247 103 213 q 151 281 136 265 l 185 314 l 156 344 l 138 368 q 100 428 111 401 q 89 479 93 447 l 93 504 q 108 524 97 514 l 129 535 l 154 539 l 447 540 l 447 660 l 0 660 l 0 717 l 618 717 l 618 660 l 521 660 l 521 481 l 190 481 q 171 474 178 481 l 165 460 l 171 438 q 190 408 179 421 l 201 390 l 218 371 l 221 365 l 228 360 l 629 358 l 632 0 l 600 0 l 599 189 l 443 189 z "},"â":{"ha":667,"x_min":0,"x_max":678,"o":"m 581 660 l 581 481 l 190 481 q 164 457 168 481 q 171 428 164 439 l 192 393 l 219 363 l 242 349 l 260 354 l 297 364 l 342 372 l 379 375 q 475 367 417 378 q 599 300 567 349 q 615 235 615 274 q 567 169 615 186 l 535 163 l 472 153 q 433 150 446 153 q 372 93 372 146 q 410 40 372 53 l 449 28 l 492 24 l 533 28 q 578 43 546 29 l 586 46 l 597 53 l 626 -6 q 564 -25 607 -15 q 494 -32 532 -32 q 363 -3 407 -32 q 301 99 301 28 q 342 189 301 164 q 447 218 376 215 q 481 218 460 218 l 504 219 l 524 219 l 539 224 l 547 232 l 550 249 q 537 283 550 269 q 492 307 524 296 l 443 315 l 379 318 q 293 307 338 319 q 181 224 217 283 q 165 161 165 199 q 182 79 165 124 q 221 13 192 47 q 295 -66 267 -43 q 350 -92 324 -89 l 301 -146 q 158 -18 249 -137 q 110 69 128 24 q 94 161 94 110 q 118 247 94 215 l 142 279 l 179 317 l 153 346 l 135 369 l 100 429 q 89 479 92 451 l 93 504 q 108 524 97 514 l 129 535 l 154 539 l 507 540 l 507 660 l 0 660 l 0 717 l 678 717 l 678 660 l 581 660 z "},"ä":{"ha":985,"x_min":0,"x_max":990,"o":"m 603 660 l 603 496 l 654 518 q 715 526 683 526 q 865 475 799 526 q 931 343 931 424 q 892 211 931 290 q 860 154 875 176 l 829 110 l 789 53 l 729 94 q 736 100 733 99 q 751 118 744 107 l 793 183 q 854 349 854 279 q 821 433 854 400 q 738 465 788 465 q 674 458 693 465 q 628 442 649 454 l 608 426 l 603 414 l 603 0 l 532 0 l 532 450 l 358 450 q 238 378 276 450 q 228 332 228 353 q 299 144 228 249 l 328 101 l 369 44 l 310 8 l 265 69 l 235 118 q 178 235 199 176 q 160 332 160 286 q 190 415 160 379 l 215 439 l 225 449 l 29 450 l 29 510 l 532 510 l 532 660 l 0 660 l 0 717 l 990 717 l 990 660 l 603 660 z "},"ã":{"ha":953,"x_min":0,"x_max":956,"o":"m 854 660 l 854 0 l 782 0 l 782 139 l 556 139 l 556 63 l 554 47 q 551 39 553 40 l 540 31 l 526 28 q 447 83 501 28 q 390 164 396 132 l 392 175 l 399 183 l 410 188 l 426 192 l 481 193 l 481 310 l 282 310 q 188 229 214 310 l 182 181 q 222 90 182 136 q 301 29 254 54 l 378 -11 q 426 -25 407 -22 l 375 -74 q 242 -6 342 -74 q 119 131 143 63 q 111 178 111 154 l 115 222 q 149 286 122 258 l 179 318 l 153 347 l 135 371 l 100 429 q 89 479 92 451 l 93 504 q 108 524 97 514 l 129 535 l 154 539 l 447 540 l 447 660 l 0 660 l 0 717 l 956 717 l 956 660 l 854 660 m 782 660 l 521 660 l 521 481 l 190 481 q 167 457 171 481 q 190 400 167 426 l 213 375 q 231 368 218 371 l 556 369 l 556 193 l 782 193 l 782 660 z "},"å":{"ha":608,"x_min":103,"x_max":578,"o":"m 516 159 q 485 126 516 159 q 356 93 454 93 q 183 157 263 93 q 103 317 103 221 q 142 447 103 389 q 249 533 182 506 q 336 551 293 551 q 505 483 432 551 q 578 317 578 415 q 516 159 578 225 m 474 449 q 455 468 474 449 q 372 488 436 488 q 233 423 292 488 q 174 272 174 358 q 186 222 174 246 q 218 183 194 206 q 265 156 236 169 q 319 147 290 147 q 424 186 374 147 q 494 275 469 221 q 513 354 513 313 q 474 449 513 411 z "},"ç":{"ha":618,"x_min":0,"x_max":618,"o":"m 524 660 l 524 0 l 450 0 l 450 301 l 103 0 l 49 49 l 282 233 q 158 286 201 233 q 122 349 135 313 q 108 425 108 385 l 108 660 l 0 660 l 0 717 l 618 717 l 618 660 l 524 660 m 447 660 l 179 660 l 179 415 q 257 293 179 335 q 299 286 269 289 q 344 297 322 286 q 399 332 382 317 l 419 350 l 447 378 l 447 660 z "},"é":{"ha":700,"x_min":0,"x_max":703,"o":"m 603 663 l 603 0 l 529 0 l 529 310 l 271 171 l 313 100 l 314 88 l 315 81 q 307 60 315 64 l 296 57 l 282 56 l 263 57 q 238 63 247 58 l 206 71 l 168 88 l 143 100 q 125 115 131 108 l 115 129 l 113 144 q 142 192 113 169 l 147 196 l 157 201 l 493 344 l 468 372 l 449 394 q 399 442 422 425 q 358 471 375 464 l 338 479 l 315 485 l 290 488 l 268 489 l 235 488 l 204 483 l 192 481 l 176 476 l 182 376 l 178 361 l 174 353 l 164 344 l 153 342 l 139 344 l 121 356 l 100 374 l 76 399 l 38 449 l 29 463 l 26 476 q 46 508 26 493 q 106 532 74 522 l 188 546 l 276 551 q 364 540 329 554 q 403 513 383 532 q 463 453 436 485 l 490 419 l 529 375 l 529 660 l 0 660 l 0 717 l 703 717 l 703 663 l 603 663 z "},"è":{"ha":367,"x_min":11,"x_max":493,"o":"m 344 660 l 344 717 l 372 717 l 372 660 l 344 660 m 474 219 l 424 185 q 242 129 343 129 q 119 172 175 129 q 63 278 63 214 q 97 368 63 325 l 111 382 l 133 400 q 92 432 113 410 q 33 508 50 476 q 22 537 33 510 q 11 588 11 564 q 50 689 11 650 q 151 728 89 728 q 269 661 239 728 q 279 619 279 640 l 279 578 l 217 578 l 217 621 q 154 676 217 676 q 103 650 124 676 l 89 622 l 85 590 q 92 538 85 561 q 115 493 99 515 q 154 446 136 464 q 188 431 171 433 l 235 444 l 289 450 l 314 449 l 342 446 l 372 393 l 279 389 q 225 382 240 388 q 139 281 139 363 q 213 192 139 219 l 256 186 q 426 251 338 186 l 457 279 l 493 318 l 493 244 q 474 219 493 233 z "},"ê":{"ha":667,"x_min":0,"x_max":678,"o":"m 529 660 l 529 515 l 236 515 q 171 440 171 515 q 239 340 171 381 q 372 303 301 303 q 486 324 435 303 q 519 340 503 329 l 543 356 l 569 378 l 624 336 l 572 301 l 529 279 l 529 122 l 250 122 q 224 117 235 122 q 199 99 213 113 l 183 75 l 179 47 q 315 -78 179 -46 q 385 -85 346 -85 q 478 -64 432 -85 l 542 -35 q 578 -11 565 -24 l 626 -54 l 585 -83 l 526 -112 q 465 -130 508 -121 q 388 -139 421 -139 q 269 -126 326 -139 q 129 -31 174 -106 q 108 50 108 4 q 176 160 108 131 q 219 169 199 169 l 461 171 l 461 261 l 429 254 l 407 253 l 379 253 q 192 294 267 253 q 124 358 147 319 q 100 440 100 396 q 137 535 100 506 q 228 565 174 565 l 461 567 l 461 660 l 0 660 l 0 717 l 678 717 l 678 660 l 529 660 z "},"ë":{"ha":667,"x_min":0,"x_max":678,"o":"m 529 660 l 529 515 l 236 515 q 165 440 165 515 q 179 383 165 411 q 292 310 210 333 q 372 300 340 300 q 485 319 431 300 q 517 336 494 322 l 539 350 l 564 374 l 615 331 l 572 301 l 529 279 l 529 122 l 214 122 q 165 99 189 122 l 150 75 l 144 47 q 221 -60 144 -19 q 297 -85 246 -74 q 369 -92 336 -94 l 426 -87 l 474 -75 q 529 -6 529 -60 q 510 46 529 21 l 501 51 l 489 58 l 535 103 l 554 79 l 569 64 q 600 0 600 33 q 460 -137 600 -111 q 372 -146 415 -146 q 162 -96 253 -146 q 71 50 71 -46 q 140 160 71 125 q 185 169 165 169 l 461 171 l 461 261 q 408 249 435 253 l 356 246 q 257 257 307 243 q 115 354 153 285 q 94 440 94 392 q 104 494 94 474 q 174 556 118 535 q 228 565 199 565 l 461 567 l 461 660 l 0 660 l 0 717 l 678 717 l 678 660 l 529 660 z "},"í":{"ha":535,"x_min":0,"x_max":543,"o":"m 432 660 l 432 515 l 206 515 l 183 511 l 168 510 q 131 460 132 500 q 158 396 129 422 l 176 379 l 190 374 l 253 393 l 258 392 l 265 393 l 276 393 l 286 394 l 307 394 l 313 393 l 319 393 l 332 392 l 342 392 l 375 333 l 363 333 l 349 336 l 340 336 l 332 338 l 293 338 q 264 332 281 338 l 225 319 q 192 286 206 308 q 179 238 179 264 q 193 175 179 200 q 226 139 203 154 l 265 124 l 314 118 l 338 119 l 353 124 l 350 129 l 350 156 q 353 185 350 175 l 363 208 q 386 230 371 222 q 421 238 401 238 q 479 194 467 238 l 483 167 l 479 139 l 467 115 q 447 99 457 104 l 424 93 l 496 -32 l 435 -65 l 372 76 l 367 72 l 354 71 l 335 68 l 314 68 q 181 97 231 68 q 124 154 143 118 q 106 240 106 186 q 108 265 106 257 l 118 293 l 140 326 l 149 340 l 122 358 l 104 372 q 60 460 60 417 q 89 540 60 518 q 136 563 108 554 q 176 568 153 568 l 361 569 l 361 660 l 0 660 l 0 717 l 543 717 l 543 660 l 432 660 z "},"ì":{"ha":732,"x_min":0,"x_max":729,"o":"m 618 660 l 618 501 l 307 501 l 296 497 l 293 490 l 294 482 l 297 476 l 314 456 l 342 428 l 361 411 l 382 400 l 406 394 l 432 393 l 456 394 l 486 399 l 549 408 l 583 411 q 656 388 631 415 q 668 358 664 376 l 672 321 q 592 194 672 243 q 521 167 576 185 q 442 158 483 158 l 403 158 q 385 161 390 161 l 333 172 l 314 178 l 293 186 l 314 151 l 332 128 q 375 83 350 104 q 413 69 393 72 l 442 71 l 551 93 l 592 99 q 622 92 610 99 q 671 49 650 86 q 678 18 675 39 q 658 -56 678 -19 q 492 -151 617 -133 q 444 -154 472 -154 q 304 -133 372 -154 q 168 -67 222 -107 l 118 -29 l 60 21 l 103 71 q 158 21 131 43 q 206 -11 165 15 q 444 -94 333 -94 q 528 -77 483 -94 q 594 -31 574 -60 q 608 10 606 -12 q 600 33 606 28 l 588 39 l 569 42 l 544 36 l 433 14 l 399 13 q 288 66 347 11 q 229 183 229 121 l 229 189 l 231 197 l 231 203 l 233 210 l 189 238 l 119 286 l 97 303 l 75 318 l 54 335 l 94 393 l 153 340 l 200 304 q 326 238 250 265 q 436 215 386 215 l 458 215 q 513 229 478 218 q 536 240 518 232 q 603 321 603 271 q 590 346 603 339 l 575 350 l 556 351 l 526 349 l 483 339 l 436 329 l 399 326 q 293 385 364 324 q 236 442 258 413 q 219 492 219 469 l 224 519 q 239 539 228 532 l 261 550 l 288 554 l 546 556 l 546 660 l 0 660 l 0 717 l 729 717 l 729 660 l 618 660 z "},"î":{"ha":683,"x_min":-128,"x_max":683,"o":"m 586 660 l 586 0 l 513 0 l 513 176 q 501 165 507 168 l 478 150 q 322 101 403 101 q 158 175 219 101 q 88 340 88 257 l 119 332 l 160 329 l 210 333 q 270 360 244 336 q 296 417 296 383 q 251 481 296 460 l 203 494 l 144 500 l 81 496 l 10 483 q -74 461 -28 476 q -126 443 -110 451 l -128 507 q -79 518 -96 511 l -42 528 l 57 544 q 146 551 99 551 q 232 544 207 551 q 349 483 315 533 q 367 422 367 456 q 307 310 367 344 q 249 288 290 300 q 171 281 210 281 q 331 153 207 153 q 393 165 361 153 q 460 204 433 181 l 483 225 l 513 257 l 513 660 l 0 660 l 0 717 l 683 717 l 683 660 l 586 660 z "},"ï":{"ha":732,"x_min":0,"x_max":729,"o":"m 618 660 l 618 535 l 307 535 l 297 531 l 294 526 l 296 519 l 304 510 l 317 496 l 336 479 l 363 461 l 382 449 l 399 442 l 415 440 l 440 442 l 469 446 l 542 458 l 579 463 l 618 458 q 672 375 672 443 q 626 276 672 313 l 607 261 l 581 246 l 581 106 l 274 106 q 247 100 258 106 l 224 88 l 208 68 l 203 44 q 289 -72 203 -42 l 324 -85 l 375 -97 q 372 -74 375 -82 l 371 -53 q 408 29 367 0 q 499 53 443 53 q 553 48 532 53 q 597 29 575 43 q 640 -37 635 11 q 579 -133 640 -106 q 450 -157 526 -157 q 219 -103 299 -157 q 133 53 133 -44 q 206 144 133 118 q 250 153 228 153 l 510 154 l 510 219 l 501 217 l 482 215 l 460 214 l 444 214 l 394 215 q 349 222 372 215 l 301 235 l 253 257 l 189 289 q 150 313 161 303 l 99 349 l 54 392 l 94 444 l 150 392 l 197 357 q 436 269 317 269 q 486 275 464 269 q 536 293 517 281 q 603 375 603 317 q 590 400 603 393 l 575 404 l 556 406 l 526 403 l 483 393 l 436 383 l 399 381 q 324 406 371 379 q 292 426 311 413 q 238 475 257 450 q 219 525 219 500 l 224 551 q 238 571 228 563 l 260 581 l 288 585 l 546 586 l 546 660 l 0 660 l 0 717 l 729 717 l 729 660 l 618 660 m 569 -32 l 556 -26 q 525 -35 544 -26 l 482 -61 l 463 -75 l 436 -97 l 443 -97 l 454 -99 l 461 -99 l 468 -100 l 482 -100 q 517 -97 504 -100 q 543 -92 536 -96 q 575 -49 575 -81 q 569 -32 575 -37 z "},"ñ":{"ha":333,"x_min":28,"x_max":288,"o":"m 249 50 q 230 33 249 50 q 157 15 211 15 q 67 47 107 15 q 28 140 28 78 q 38 192 28 171 q 108 257 53 236 q 157 265 129 265 q 251 231 214 265 q 288 140 288 196 q 249 50 288 85 m 186 69 q 208 85 199 74 l 222 108 l 228 138 q 222 167 228 156 l 210 190 q 186 207 201 201 l 157 213 q 104 189 125 213 l 90 165 l 86 138 l 90 108 q 104 85 94 97 l 125 69 l 157 64 l 186 69 z "},"ó":{"ha":933,"x_min":0,"x_max":933,"o":"m 833 663 l 833 0 l 760 0 l 760 274 l 561 92 l 507 136 l 714 304 l 710 306 l 706 308 l 700 310 l 696 313 q 650 329 675 324 l 600 335 l 561 332 l 517 324 l 482 314 l 467 308 l 432 372 l 489 382 l 550 392 l 594 394 l 611 394 l 618 393 l 626 393 q 639 390 636 392 l 649 389 l 629 424 l 615 444 q 472 497 563 497 l 442 494 q 406 489 422 494 q 397 486 400 488 l 388 485 q 354 374 388 419 q 317 341 340 354 q 267 328 293 328 l 251 329 l 233 332 l 319 201 l 357 153 l 424 76 l 453 47 l 396 0 q 329 71 371 10 l 160 317 l 121 381 l 96 424 l 71 468 l 131 507 l 171 429 q 253 381 196 381 l 283 385 q 301 399 297 389 l 311 419 l 314 449 l 313 469 l 313 660 l 0 660 l 0 717 l 933 717 l 933 663 l 833 663 m 760 660 l 385 660 l 385 543 q 406 544 397 543 q 419 549 414 546 l 457 554 l 483 557 q 675 461 603 557 l 697 421 l 722 365 l 760 342 l 760 660 z "},"ò":{"ha":1067,"x_min":0,"x_max":0,"o":""},"ô":{"ha":885,"x_min":0,"x_max":879,"o":"m 496 660 l 496 483 l 529 507 l 574 528 l 624 540 l 674 546 q 803 481 769 546 q 814 425 814 457 q 778 321 814 371 l 757 300 l 706 336 l 713 340 l 718 347 q 749 425 749 386 q 742 453 749 440 q 699 492 736 476 l 669 497 q 561 453 633 497 l 532 435 l 496 408 l 496 268 l 531 285 l 550 293 l 601 311 l 643 318 q 760 279 721 318 q 803 178 803 246 q 786 107 803 142 q 736 43 767 65 l 708 22 l 669 0 l 632 49 l 661 65 l 682 81 q 732 178 732 117 q 725 218 732 203 q 678 256 718 246 l 640 261 q 597 253 625 261 l 546 228 l 524 214 l 496 194 l 496 0 l 424 0 l 424 142 q 404 125 417 132 l 361 103 q 301 78 332 88 q 250 69 271 69 q 188 81 219 69 q 104 160 131 100 q 92 218 92 188 q 108 275 92 243 q 121 293 110 279 l 138 310 l 154 321 l 128 340 l 110 365 l 99 392 l 96 419 q 110 476 96 449 q 196 554 133 529 q 258 565 232 568 l 290 563 l 328 554 l 336 551 l 347 547 l 375 486 l 353 490 l 338 494 l 296 503 l 268 506 q 175 446 210 506 q 168 413 171 436 q 217 351 168 374 l 238 356 l 260 357 l 285 356 l 357 347 l 379 346 l 407 282 l 392 285 l 354 293 l 311 300 l 282 303 q 238 296 254 303 q 175 251 194 289 q 165 213 165 235 q 189 153 165 174 q 218 135 199 142 l 261 129 q 371 169 314 129 l 410 197 l 424 215 l 424 660 l 0 660 l 0 717 l 879 717 l 879 660 l 496 660 z "},"ö":{"ha":683,"x_min":-4,"x_max":681,"o":"m 247 -32 l 249 -37 l 246 -43 l 239 -50 q 215 -47 224 -50 l 168 -32 q 149 -25 158 -28 q 103 1 129 -17 l 103 8 l 107 18 l 115 28 l 161 50 l 113 157 l 99 172 l 81 178 l 64 174 q 49 164 57 172 l 38 150 l 35 133 l 36 125 l 36 119 l 44 107 l 49 101 l 54 97 l 58 93 l 65 88 l 28 71 l 22 74 l 19 78 l 11 88 l 6 97 l 0 114 l -1 131 q 25 188 -4 158 q 89 213 50 208 l 107 210 l 125 201 l 140 189 l 153 171 l 200 69 l 361 154 q 257 167 324 154 q 228 176 244 168 q 94 371 94 226 q 133 490 94 443 q 233 536 171 536 l 458 538 l 458 660 l 0 660 l 0 717 l 681 717 l 681 660 l 532 660 l 532 483 l 261 483 q 168 371 168 483 q 290 213 168 263 q 367 201 326 201 l 381 203 l 401 206 l 426 210 l 425 222 q 432 247 425 233 q 507 324 453 324 q 565 283 551 324 l 569 258 q 550 194 569 225 q 524 168 539 178 q 493 161 514 164 l 496 143 l 506 94 l 515 64 l 532 24 l 556 -14 l 569 -33 l 583 -49 l 501 -49 l 476 8 l 460 49 q 442 103 447 79 l 436 153 l 215 36 l 247 -32 z "},"õ":{"ha":8,"x_min":-525,"x_max":51,"o":"m -132 717 l -371 1031 l -306 1067 l -83 717 l -132 717 m -251 717 l -525 900 l -474 957 l -217 717 l -251 717 m -36 892 l -36 969 l 49 969 l 49 892 l -36 892 m 40 1043 l 31 1047 l 3 1053 l -24 1056 q -90 1027 -65 1056 q -114 957 -114 999 q -102 891 -114 925 q -69 829 -90 857 l -50 803 l -24 771 l -76 772 q -96 792 -89 781 l -128 842 q -146 879 -132 847 l -164 918 q -176 988 -176 956 q -131 1079 -176 1046 q -25 1113 -86 1113 l 14 1108 l 51 1096 l 51 1040 l 40 1043 z "},"ù":{"ha":953,"x_min":0,"x_max":956,"o":"m 782 660 l 521 660 l 521 481 l 190 481 q 167 457 171 481 q 190 400 167 426 l 213 375 q 231 368 218 371 l 556 369 l 556 193 l 782 193 l 782 660 m 172 322 l 147 349 l 131 372 q 99 428 110 403 q 89 479 89 453 l 93 504 q 108 524 97 514 l 129 535 l 154 539 l 447 540 l 447 660 l 0 660 l 0 717 l 956 717 l 956 660 l 854 660 l 854 0 l 782 0 l 782 139 l 556 139 l 556 63 l 554 47 q 551 39 553 40 l 540 31 l 526 28 q 447 83 501 28 q 390 164 396 132 l 392 175 l 399 183 l 410 188 l 426 192 l 481 193 l 481 310 l 239 310 q 199 315 217 310 l 192 315 q 183 318 185 317 l 172 322 z "},"†":{"ha":592,"x_min":108,"x_max":556,"o":"m 533 507 q 468 436 515 482 q 376 363 399 369 q 417 333 399 353 l 461 286 q 490 238 476 269 q 499 200 496 221 q 486 126 499 158 q 453 81 476 100 q 403 49 435 63 q 342 39 367 39 q 249 72 294 39 q 182 151 203 106 q 168 218 168 182 q 183 272 168 247 q 231 335 203 304 l 257 358 l 293 389 l 239 436 l 201 472 q 108 604 111 558 l 160 697 l 225 654 l 206 640 l 188 625 l 168 601 l 163 582 q 239 471 163 540 l 269 443 l 315 408 l 365 446 l 401 475 q 468 540 440 507 q 489 579 486 561 q 471 649 489 622 l 464 656 l 447 668 l 469 692 l 513 656 q 553 586 540 632 q 556 560 556 575 q 533 507 556 538 m 353 350 q 350 349 351 349 q 331 335 338 342 l 288 293 q 232 217 246 253 q 225 186 226 203 q 272 90 225 117 q 307 83 283 86 q 353 94 329 83 q 431 175 404 119 q 442 224 442 199 l 353 350 z "},"°":{"ha":1067,"x_min":0,"x_max":0,"o":""},"¢":{"ha":4,"x_min":-731,"x_max":-397,"o":"m -443 717 l -731 1014 l -682 1067 l -397 717 l -443 717 z "},"£":{"ha":878,"x_min":0,"x_max":928,"o":"m 711 292 l 706 281 q 657 253 689 260 q 632 251 650 251 q 483 340 532 251 q 472 403 472 369 q 511 501 472 458 q 606 554 550 543 q 638 557 619 557 l 668 553 l 700 542 l 717 492 l 685 500 l 650 504 q 608 497 624 504 q 550 450 572 492 q 543 406 543 432 l 547 364 q 581 318 556 332 l 607 313 q 665 333 642 313 l 693 358 l 715 392 l 715 310 l 711 292 m 542 118 l 485 158 l 649 268 l 660 215 l 542 118 m 356 461 q 299 369 356 399 l 249 356 l 185 351 l 218 278 l 251 226 q 355 135 289 168 q 492 101 421 101 q 654 156 583 101 l 715 218 l 715 146 q 675 106 699 125 q 651 92 671 103 l 621 74 l 556 51 q 486 44 518 44 q 386 56 426 44 q 211 175 285 83 q 131 306 158 242 l 107 361 l 68 474 l 131 507 l 154 429 l 163 421 l 171 415 l 193 406 l 219 403 l 247 407 q 281 439 274 415 l 285 465 l 285 660 l 0 660 l 0 717 l 928 717 l 928 660 l 793 660 l 793 0 l 719 0 l 719 660 l 356 660 l 356 461 z "},"§":{"ha":306,"x_min":22,"x_max":254,"o":"m 206 60 l 206 24 l 72 24 l 72 -74 l 92 -96 l 110 -92 l 121 -90 l 133 -89 l 153 -89 l 183 -132 l 138 -136 l 97 -149 q 58 -193 64 -164 l 58 -199 q 61 -207 60 -206 l 64 -212 l 69 -219 q 93 -236 81 -231 l 124 -242 q 208 -220 164 -242 q 254 -189 251 -199 l 254 -249 l 240 -257 l 215 -269 l 183 -281 l 157 -287 q 87 -267 121 -287 q 39 -214 53 -246 q 28 -169 31 -194 l 29 -150 l 38 -132 q 51 -115 43 -121 l 72 -103 l 22 -62 l 22 60 l 206 60 z "},"•":{"ha":1067,"x_min":0,"x_max":0,"o":""},"¶":{"ha":583,"x_min":0,"x_max":632,"o":"m 578 450 q 540 424 556 442 q 510 383 519 404 l 500 363 l 489 335 l 489 0 l 415 0 l 415 276 q 385 251 401 260 l 353 236 l 318 226 l 283 224 q 211 236 249 221 q 114 332 140 265 q 100 406 100 367 l 100 660 l 0 660 l 0 717 l 581 717 l 581 660 l 489 660 l 489 447 l 517 471 l 556 497 l 597 518 l 632 525 l 632 464 l 578 450 m 415 660 l 171 660 l 171 396 q 203 301 171 333 q 232 283 213 292 l 276 278 q 375 317 336 278 q 415 386 408 350 l 415 660 z "},"ß":{"ha":382,"x_min":71,"x_max":350,"o":"m 290 629 l 208 629 l 290 828 l 350 828 l 290 629 m 154 632 l 71 632 l 151 831 l 211 831 l 154 632 z "},"®":{"ha":299,"x_min":-176,"x_max":296,"o":"m 196 660 l 196 0 l 122 0 l 122 660 l 0 660 l 0 717 l 92 717 l -176 1014 l -125 1067 l 157 717 l 296 717 l 296 660 l 196 660 z "},"©":{"ha":299,"x_min":-282,"x_max":296,"o":"m 196 660 l 196 0 l 122 0 l 122 660 l 0 660 l 0 717 l -282 900 l -231 957 l 38 717 l 106 717 l -128 1031 l -62 1067 l 157 717 l 296 717 l 296 660 l 196 660 z "},"™":{"ha":403,"x_min":0,"x_max":561,"o":"m 0 717 l 561 717 l 561 663 l 0 660 l 0 717 m 271 171 l 313 100 l 314 88 l 315 81 q 307 60 315 64 l 296 57 l 282 56 l 263 57 q 238 63 247 58 l 206 71 l 168 88 l 143 100 q 125 115 131 108 l 115 129 l 113 144 q 142 192 113 169 l 147 196 l 157 201 l 493 344 l 468 372 l 449 394 q 399 442 422 425 q 358 471 375 464 l 338 479 l 315 485 l 290 488 l 268 489 l 235 488 l 204 483 l 192 481 l 176 476 l 182 376 l 178 361 l 174 353 l 164 344 l 153 342 l 139 344 l 121 356 l 100 374 l 76 399 l 38 449 l 29 463 l 26 476 q 46 508 26 493 q 106 532 74 522 l 188 546 l 276 551 q 364 540 329 554 q 403 513 383 532 q 463 453 436 485 l 490 419 l 529 375 l 529 310 l 271 171 z "},"´":{"ha":800,"x_min":0,"x_max":808,"o":"m 708 660 l 708 0 l 635 0 l 635 304 l 607 296 l 579 294 l 556 296 l 533 300 q 508 307 515 303 l 486 318 q 463 242 481 292 l 451 208 q 271 104 390 104 q 82 167 196 104 q 38 200 61 178 l 85 253 q 103 232 88 244 l 146 203 q 212 169 179 181 q 271 158 244 158 q 375 210 335 158 q 411 300 401 246 q 414 333 414 315 q 335 485 414 446 q 276 497 307 497 q 249 492 263 497 l 218 479 l 204 471 l 188 460 l 139 515 l 165 525 l 185 535 l 233 551 l 271 557 q 442 464 378 557 q 463 425 456 444 l 483 371 l 496 365 l 508 361 l 531 353 l 550 351 q 635 374 596 349 l 635 660 l 0 660 l 0 717 l 808 717 l 808 660 l 708 660 z "},"¨":{"ha":299,"x_min":-176,"x_max":296,"o":"m 196 660 l 196 0 l 122 0 l 122 660 l 0 660 l 0 717 l 92 717 l -176 1014 l -125 1067 l 157 717 l 296 717 l 296 660 l 196 660 z "},"Æ":{"ha":299,"x_min":0,"x_max":897,"o":"m 886 988 l 878 992 l 851 997 l 825 1000 q 756 973 783 1000 q 729 901 729 946 q 742 839 729 868 q 776 774 757 800 l 796 747 l 825 715 l 743 717 l 708 747 l 675 781 q 626 824 647 808 q 593 847 604 840 l 510 903 q 406 953 465 932 q 315 969 356 969 q 260 958 283 969 q 181 878 208 942 q 171 813 169 840 l 172 785 l 181 754 l 190 726 l 196 715 l 296 717 l 296 660 l 196 660 l 196 0 l 122 0 l 122 660 l 0 660 l 0 717 l 128 717 l 124 721 l 119 739 l 107 785 l 103 824 q 163 969 103 910 q 319 1029 222 1029 q 438 1006 374 1029 q 568 939 517 976 q 619 901 581 932 q 683 847 639 886 l 678 858 l 676 868 l 671 897 l 669 932 q 757 1049 667 1018 q 814 1057 782 1057 l 858 1053 l 897 1040 l 897 985 l 886 988 z "},"Ø":{"ha":885,"x_min":0,"x_max":910,"o":"m 496 660 l 496 450 l 521 474 l 538 488 q 635 522 579 522 q 771 469 713 522 q 825 343 825 421 q 753 174 825 263 l 722 136 l 681 90 l 621 136 q 643 151 631 139 q 733 282 704 213 q 749 349 749 319 q 735 417 749 388 q 643 465 710 465 q 538 404 586 465 q 508 351 519 381 q 496 297 496 321 l 496 0 l 424 0 l 424 225 l 94 6 l 54 60 l 256 179 l 208 192 q 175 207 186 197 q 94 346 94 254 q 153 478 94 425 q 251 529 197 518 q 290 533 271 533 l 326 529 q 361 519 342 528 l 361 461 l 328 472 l 297 476 q 208 440 247 476 q 181 399 196 428 q 171 349 171 374 q 249 232 171 274 q 293 222 274 222 q 319 225 310 222 l 347 238 l 424 290 l 424 660 l 0 660 l 0 717 l 910 717 l 910 660 l 496 660 z "},"±":{"ha":17,"x_min":-260,"x_max":-31,"o":"m -119 836 l -119 914 l -35 914 l -35 836 l -119 836 m -42 988 l -51 992 l -78 997 l -107 1000 q -173 972 -149 1000 q -197 901 -197 943 q -185 835 -197 869 q -153 774 -174 801 l -133 747 l -107 715 l -160 717 q -179 736 -172 725 l -211 786 q -229 824 -215 792 l -247 863 q -260 932 -260 900 q -215 1024 -260 990 q -108 1057 -169 1057 l -68 1053 l -31 1040 l -32 985 l -42 988 z "},"¥":{"ha":800,"x_min":0,"x_max":808,"o":"m 708 660 l 708 0 l 635 0 l 635 304 l 607 296 l 579 294 l 556 296 l 533 300 q 508 307 515 303 l 486 318 q 463 242 481 292 l 451 208 q 271 104 390 104 q 82 167 196 104 q 38 200 61 178 l 85 253 q 103 232 88 244 l 146 203 q 212 169 179 181 q 271 158 244 158 q 375 210 335 158 q 411 300 401 246 q 414 333 414 315 q 335 485 414 446 q 276 497 307 497 q 249 492 263 497 l 218 479 l 204 471 l 188 460 l 139 515 l 165 525 l 185 535 l 233 551 l 271 557 q 442 464 378 557 q 463 425 456 444 l 483 371 l 496 365 l 508 361 l 531 353 l 550 351 q 635 374 596 349 l 635 660 l 0 660 l 0 717 l 808 717 l 808 660 l 708 660 z "},"µ":{"ha":1067,"x_min":0,"x_max":0,"o":""},"μ":{"ha":1067,"x_min":0,"x_max":0,"o":""},"ª":{"ha":17,"x_min":-618,"x_max":-94,"o":"m -176 -199 l -347 14 l -535 -199 l -618 -199 l -387 51 l -312 51 l -94 -199 l -176 -199 z "},"º":{"ha":618,"x_min":0,"x_max":632,"o":"m 318 304 q 264 293 286 304 q 219 264 246 288 q 179 169 179 229 q 340 36 179 78 l 386 31 q 421 25 396 29 l 501 15 l 478 -35 l 447 -36 q 326 -18 422 -37 q 276 -4 294 -11 q 126 93 171 25 q 103 178 103 129 q 125 247 103 213 q 151 281 136 265 l 185 314 l 156 344 l 138 368 q 100 428 111 401 q 89 479 93 447 l 93 504 q 108 524 97 514 l 129 535 l 154 539 l 447 540 l 447 660 l 0 660 l 0 717 l 618 717 l 618 660 l 521 660 l 521 481 l 190 481 q 171 474 178 481 l 165 460 l 171 438 q 190 408 179 421 l 201 390 l 218 371 l 221 365 l 228 360 l 632 361 l 632 304 l 318 304 z "},"æ":{"ha":683,"x_min":0,"x_max":681,"o":"m 532 660 l 532 483 l 261 483 q 168 371 168 483 q 290 213 168 263 q 367 201 326 201 l 381 203 l 401 206 l 426 210 l 425 222 q 432 247 425 233 q 507 324 453 324 q 565 283 551 324 l 569 258 q 550 194 569 225 q 524 168 539 178 q 493 161 514 164 l 496 143 l 506 94 l 515 64 l 532 24 l 556 -14 l 569 -33 l 583 -49 l 501 -49 l 476 8 l 460 49 q 442 103 447 79 l 436 153 l 149 -57 l 106 3 l 361 154 q 257 167 324 154 q 228 176 244 168 q 94 371 94 226 q 133 490 94 443 q 233 536 171 536 l 458 538 l 458 660 l 0 660 l 0 717 l 681 717 l 681 660 l 532 660 z "},"ø":{"ha":282,"x_min":46,"x_max":453,"o":"m 339 -253 q 160 -158 199 -253 q 144 -85 144 -124 l 144 206 q 118 300 144 253 q 46 374 92 347 l 60 385 l 72 393 l 97 414 l 114 435 l 125 456 l 135 483 l 142 511 l 144 533 l 144 825 q 157 889 144 856 q 238 982 182 956 q 297 996 267 996 l 315 993 l 339 989 l 453 990 l 453 947 l 342 947 q 288 936 314 947 q 213 869 235 915 q 203 821 203 844 l 200 511 q 194 479 200 497 q 183 444 193 468 l 168 419 l 94 375 l 108 364 l 119 358 q 144 339 135 351 l 163 324 l 168 314 l 176 303 l 189 268 l 199 231 l 203 201 l 203 -82 q 240 -169 203 -140 q 311 -197 268 -192 q 342 -199 321 -199 l 453 -199 l 453 -253 l 339 -253 z "},"¿":{"ha":282,"x_min":46,"x_max":453,"o":"m 339 -253 q 160 -158 199 -253 q 144 -85 144 -124 l 144 206 q 118 300 144 253 q 46 374 92 347 l 60 385 l 72 393 l 97 414 l 114 435 l 125 456 l 135 483 l 142 511 l 144 533 l 144 825 q 157 889 144 856 q 238 982 182 956 q 297 996 267 996 l 315 993 l 339 989 l 453 990 l 453 947 l 342 947 q 288 936 314 947 q 213 869 235 915 q 203 821 203 844 l 200 511 q 194 479 200 497 q 183 444 193 468 l 168 419 l 94 375 l 108 364 l 119 358 q 144 339 135 351 l 163 324 l 168 314 l 176 303 l 189 268 l 199 231 l 203 201 l 203 -82 q 240 -169 203 -140 q 311 -197 268 -192 q 342 -199 321 -199 l 453 -199 l 453 -253 l 339 -253 z "},"¡":{"ha":17,"x_min":-468,"x_max":-25,"o":"m -287 971 l -287 1047 l -206 1047 l -206 971 l -287 971 m -89 858 q -156 815 -119 828 q -246 801 -196 801 q -397 854 -342 801 q -468 997 -453 907 l -396 999 q -353 894 -396 933 q -244 854 -310 854 q -107 935 -149 854 q -96 997 -96 964 l -25 999 q -89 858 -25 919 z "},"¬":{"ha":1067,"x_min":0,"x_max":0,"o":""},"ƒ":{"ha":493,"x_min":128,"x_max":464,"o":"m 400 88 l 367 38 l 333 -8 l 256 43 l 260 44 l 264 47 l 271 51 l 300 74 l 319 96 q 356 175 340 129 q 379 282 375 231 l 383 328 l 388 389 l 367 382 l 351 378 l 318 368 l 304 365 q 189 413 250 365 q 128 536 128 461 q 175 644 128 597 q 282 690 222 690 q 426 590 378 690 q 461 447 451 538 q 464 386 464 419 q 400 88 464 210 m 383 533 q 374 576 382 558 q 304 633 357 633 q 231 597 267 633 q 196 517 196 561 q 224 453 196 475 l 254 438 l 293 432 q 388 476 351 432 l 383 533 z "},"«":{"ha":450,"x_min":-3,"x_max":575,"o":"m -3 660 l -3 717 l 513 717 l 513 660 l -3 660 m 239 63 l 196 125 l 540 304 l 461 381 q 346 460 379 460 q 213 417 296 460 l 119 368 l 76 424 q 119 447 90 432 l 240 497 l 310 522 q 353 531 333 531 q 479 440 390 531 l 575 343 l 575 263 l 239 63 z "},"»":{"ha":768,"x_min":19,"x_max":732,"o":"m 333 561 l 333 657 l 429 657 l 429 561 l 333 561 m 19 325 l 19 385 l 732 385 l 732 325 l 19 325 m 333 60 l 333 154 l 429 154 l 429 60 l 333 60 z "},"…":{"ha":558,"x_min":117,"x_max":518,"o":"m 467 -149 l 436 -111 l 404 -71 l 382 -40 l 346 17 l 326 46 l 319 61 l 281 63 l 226 64 q 153 104 179 71 q 142 153 142 124 q 163 199 142 181 l 185 213 l 211 218 q 285 185 239 218 l 319 150 q 343 157 329 150 l 379 179 q 429 254 429 210 q 424 285 429 269 l 411 319 l 396 347 l 388 357 l 236 358 l 185 429 l 353 429 l 376 440 l 394 453 q 436 533 431 478 q 407 596 436 578 q 367 608 386 607 l 313 614 l 269 611 q 218 606 242 610 l 175 599 q 157 593 160 596 l 117 681 l 336 681 q 443 631 393 681 q 486 514 486 578 q 454 414 486 457 l 440 399 l 421 381 q 468 321 450 360 q 481 281 479 297 l 485 242 q 451 133 485 178 q 361 75 418 88 l 369 60 l 385 38 l 406 13 l 429 -14 l 451 -40 l 479 -69 l 504 -93 l 518 -106 l 467 -149 z "},"À":{"ha":535,"x_min":71,"x_max":475,"o":"m 407 307 q 385 256 394 286 l 379 204 l 379 -85 q 319 -211 379 -165 q 224 -250 282 -240 q 182 -253 207 -253 l 71 -253 l 71 -199 l 179 -199 q 278 -169 243 -199 q 315 -82 315 -146 l 318 231 l 329 267 l 343 301 l 361 326 l 378 340 l 401 358 l 411 364 l 426 374 l 356 421 l 340 439 l 329 467 l 318 503 l 315 533 l 315 822 q 274 910 315 874 q 179 946 232 946 l 71 947 l 71 990 l 182 990 l 193 992 l 203 994 l 211 996 l 224 996 q 333 942 286 996 q 379 824 379 888 l 381 508 q 386 483 382 493 l 394 458 l 406 436 l 413 425 l 433 404 l 447 393 l 458 385 l 475 374 q 407 307 433 353 z "},"Ã":{"ha":618,"x_min":0,"x_max":626,"o":"m 626 717 l 626 660 l 469 660 l 469 478 l 179 478 l 175 472 l 171 465 l 172 446 l 178 431 l 190 410 l 211 383 l 251 339 l 274 321 l 293 317 q 361 329 321 317 q 397 342 371 332 l 431 351 l 458 354 q 514 324 492 354 q 529 289 522 311 l 535 251 q 519 164 535 207 q 446 67 500 108 q 411 42 428 53 q 344 24 375 24 l 360 7 l 374 -3 l 404 -29 l 429 -51 l 485 -87 l 524 -111 l 486 -171 l 465 -157 l 450 -147 q 408 -115 432 -136 l 338 -54 l 303 -19 l 276 4 l 265 18 l 217 18 q 171 25 201 19 q 150 32 163 26 q 85 121 85 54 l 89 144 q 103 167 93 157 l 122 181 l 149 186 q 250 132 196 186 l 268 108 l 293 78 q 342 85 319 78 q 376 96 364 88 q 461 229 467 136 l 460 256 q 458 278 458 272 q 450 289 457 285 l 436 294 l 414 289 l 368 272 l 315 257 l 276 251 q 154 341 219 251 q 89 474 89 431 l 93 494 l 108 514 l 131 528 l 154 533 l 396 535 l 396 660 l 0 660 l 0 717 l 397 717 l 369 757 l 343 807 l 317 874 q 308 932 308 906 q 352 1023 308 989 q 460 1057 396 1057 l 500 1053 l 538 1040 l 538 985 l 526 988 l 517 992 l 489 997 l 461 1000 q 376 943 401 1000 l 371 901 q 388 824 371 865 q 401 793 392 814 l 424 754 l 450 715 l 626 717 z "},"Õ":{"ha":1067,"x_min":0,"x_max":0,"o":""},"Œ":{"ha":608,"x_min":103,"x_max":578,"o":"m 516 159 q 485 126 516 159 q 356 93 454 93 q 183 157 263 93 q 103 317 103 221 q 142 447 103 389 q 249 533 182 506 q 336 551 293 551 q 505 483 432 551 q 578 317 578 415 q 516 159 578 225 m 474 449 q 455 468 474 449 q 372 488 436 488 q 233 423 292 488 q 174 272 174 358 q 186 222 174 246 q 218 183 194 206 q 265 156 236 169 q 319 147 290 147 q 424 186 374 147 q 494 275 469 221 q 513 354 513 313 q 474 449 513 411 z "},"œ":{"ha":1067,"x_min":0,"x_max":0,"o":""},"–":{"ha":683,"x_min":0,"x_max":697,"o":"m 546 660 l 546 472 l 290 472 q 221 439 254 472 l 199 404 q 192 367 194 393 q 313 194 192 239 l 363 183 l 435 178 q 432 186 433 185 l 432 193 q 429 214 432 207 l 428 229 q 431 260 428 250 l 443 288 q 501 314 460 314 q 526 307 515 314 q 564 265 550 299 l 569 238 q 543 168 569 192 l 532 158 l 515 147 l 550 71 l 574 31 l 597 -1 l 607 -12 l 618 -28 l 526 -28 l 489 46 l 450 128 l 439 125 l 429 125 q 249 160 321 125 q 152 241 182 192 q 122 365 122 290 q 163 479 122 428 q 261 531 203 531 l 467 532 l 467 660 l 0 660 l 0 717 l 697 717 l 697 660 l 546 660 m 624 -311 l 604 -321 l 575 -331 l 547 -339 l 518 -343 l 489 -344 q 422 -333 460 -346 q 318 -253 349 -308 q 301 -186 301 -221 q 340 -78 301 -117 q 390 -46 361 -57 q 446 -35 418 -35 l 563 -35 l 563 -92 l 464 -92 q 403 -118 428 -92 q 381 -146 388 -132 l 375 -181 q 415 -260 375 -232 q 500 -287 454 -287 q 532 -285 522 -287 q 564 -275 549 -283 l 594 -258 q 611 -243 608 -251 l 649 -297 l 624 -311 z "},"—":{"ha":885,"x_min":0,"x_max":882,"o":"m 496 660 l 496 450 l 521 474 l 538 488 q 635 522 579 522 q 771 469 713 522 q 825 343 825 421 q 753 174 825 263 l 722 136 l 681 90 l 621 136 q 643 151 631 139 q 733 282 704 213 q 749 349 749 319 q 735 417 749 388 q 643 465 710 465 q 538 404 586 465 q 508 351 519 381 q 496 297 496 321 l 496 0 l 424 0 l 424 206 q 294 154 372 154 q 155 208 215 154 q 94 346 94 263 q 151 481 94 429 q 249 531 193 518 q 286 535 267 535 l 324 531 q 361 519 349 525 l 361 461 l 328 472 l 297 476 q 208 440 247 476 q 181 399 196 428 q 171 349 171 374 q 206 250 171 289 q 246 218 222 229 q 293 207 269 207 q 394 258 343 207 q 424 314 424 288 l 424 660 l 0 660 l 0 717 l 882 717 l 882 660 l 496 660 m 560 -276 l 540 -286 q 426 -310 478 -310 q 360 -299 389 -310 q 254 -214 290 -279 q 239 -149 239 -186 q 325 -10 239 -51 q 382 0 354 0 l 496 0 l 496 -54 l 401 -54 q 340 -79 365 -54 q 318 -110 326 -93 l 313 -144 q 322 -187 313 -169 q 369 -233 332 -211 q 439 -249 397 -249 q 549 -208 503 -249 l 583 -262 l 560 -276 z "},"“":{"ha":686,"x_min":1,"x_max":706,"o":"m 279 347 l 279 221 l 278 213 l 267 203 l 253 200 q 217 218 239 200 q 156 274 181 244 l 103 336 q 85 374 88 360 l 89 385 l 100 396 l 113 403 l 122 406 l 206 407 l 206 601 q 188 645 206 628 q 143 663 169 663 q 115 657 131 663 l 92 644 l 76 622 l 71 593 l 72 574 l 79 553 l 82 543 l 89 531 l 19 532 l 14 542 l 13 550 l 7 569 l 6 588 q 44 682 1 647 q 146 717 88 717 q 269 646 240 717 q 279 594 279 621 l 279 407 l 497 407 l 497 660 l 361 660 l 361 717 l 706 717 l 706 660 l 571 660 l 571 0 l 497 0 l 497 347 l 279 347 z "},"”":{"ha":1067,"x_min":0,"x_max":0,"o":""},"‘":{"ha":1067,"x_min":0,"x_max":0,"o":""},"’":{"ha":515,"x_min":0,"x_max":513,"o":"m 413 660 q 442 622 432 640 l 464 582 l 476 539 l 482 494 q 438 353 482 421 q 326 257 393 286 q 228 238 281 238 l 458 46 l 410 -3 l 76 279 l 125 328 l 171 290 l 179 288 l 188 288 l 224 289 q 301 314 265 294 l 344 343 l 378 378 l 400 415 l 407 444 l 410 485 l 389 467 l 372 454 q 325 429 350 438 q 282 422 313 425 q 171 465 215 422 q 134 513 147 486 q 121 569 121 540 q 160 658 121 614 l 0 660 l 0 717 l 513 717 l 513 660 l 413 660 m 389 586 q 378 608 385 600 q 285 661 343 661 q 247 654 261 661 q 201 608 215 646 l 196 576 q 222 508 196 535 q 290 482 249 482 q 375 519 338 482 l 386 535 l 401 557 l 389 586 z "},"÷":{"ha":515,"x_min":0,"x_max":646,"o":"m 635 275 l 625 275 l 614 274 l 606 274 l 586 271 l 547 271 q 531 274 536 271 l 522 275 q 514 278 515 276 l 504 281 l 496 286 l 496 247 q 442 129 496 176 q 315 69 372 69 l 379 29 l 453 -3 l 410 -57 l 301 10 l 276 28 l 254 46 l 242 58 l 208 60 l 161 60 q 97 92 121 60 q 88 129 90 104 l 92 150 l 104 171 l 122 183 l 144 189 q 166 188 158 189 q 186 179 174 186 l 206 168 l 226 153 l 240 138 l 258 115 l 306 125 q 340 136 331 131 q 424 257 424 174 q 421 278 424 274 l 413 292 l 400 300 l 383 303 l 360 300 l 296 283 l 276 281 l 246 285 q 183 321 217 293 l 153 353 q 92 476 92 417 q 121 529 92 511 l 140 536 l 165 539 l 372 540 l 372 660 l 0 660 l 0 717 l 521 717 l 521 660 l 444 660 l 444 483 l 179 483 l 169 476 l 167 469 l 168 456 l 175 440 l 189 417 l 214 386 l 231 368 l 249 357 l 267 351 l 290 350 l 313 351 q 350 357 335 353 l 386 363 l 410 365 q 453 353 435 365 l 475 338 l 489 332 l 525 321 l 560 318 l 599 322 q 633 336 611 325 l 639 339 l 646 346 l 646 276 l 635 275 z "},"Ÿ":{"ha":483,"x_min":0,"x_max":610,"o":"m 0 660 l 0 717 l 546 717 l 546 660 l 0 660 m 358 456 q 269 421 311 456 q 228 332 228 386 q 315 151 228 253 l 351 110 l 404 58 l 361 6 l 303 67 l 261 117 q 160 332 160 239 q 178 400 160 372 q 190 419 181 406 l 225 454 l 29 456 l 29 510 l 610 510 l 610 456 l 358 456 z "},"¤":{"ha":306,"x_min":22,"x_max":254,"o":"m 206 60 l 206 24 l 72 24 l 72 -74 l 92 -96 l 110 -92 l 121 -90 l 133 -89 l 153 -89 l 183 -132 l 138 -136 l 97 -149 q 58 -193 64 -164 l 58 -199 q 61 -207 60 -206 l 64 -212 l 69 -219 q 93 -236 81 -231 l 124 -242 q 208 -220 164 -242 q 254 -189 251 -199 l 254 -249 l 240 -257 l 215 -269 l 183 -281 l 157 -287 q 87 -267 121 -287 q 39 -214 53 -246 q 28 -169 31 -194 l 29 -150 l 38 -132 q 51 -115 43 -121 l 72 -103 l 22 -62 l 22 60 l 206 60 z "},"‹":{"ha":621,"x_min":76,"x_max":610,"o":"m 606 -46 q 596 -65 604 -56 l 582 -75 l 561 -89 l 535 -68 l 554 -57 l 563 -53 q 572 -39 568 -49 l 575 -19 q 572 -11 574 -12 l 563 -4 l 547 3 l 528 10 q 478 22 513 15 l 418 26 q 354 31 386 28 q 290 43 322 33 q 188 133 218 65 q 165 260 165 182 q 190 343 165 311 l 200 356 l 217 371 l 94 369 l 76 442 l 239 442 l 229 446 l 221 453 l 210 464 q 188 504 197 479 q 179 554 179 529 q 235 660 179 633 q 290 678 260 672 l 364 683 l 447 683 l 458 615 l 433 617 q 415 619 419 618 l 371 624 l 336 625 q 254 595 289 626 q 219 519 219 564 q 238 475 219 496 q 250 461 243 467 l 263 451 l 282 440 l 546 442 l 558 372 l 339 372 q 260 315 307 372 q 217 238 225 274 q 214 210 214 225 q 253 119 214 140 q 294 106 271 110 l 353 101 l 401 103 q 499 92 467 104 q 599 26 572 75 q 610 -22 610 4 l 606 -46 z "},"›":{"ha":8,"x_min":-525,"x_max":51,"o":"m -132 717 l -371 1031 l -306 1067 l -83 717 l -132 717 m -251 717 l -525 900 l -474 957 l -217 717 l -251 717 m -36 892 l -36 969 l 49 969 l 49 892 l -36 892 m 40 1043 l 31 1047 l 3 1053 l -24 1056 q -90 1027 -65 1056 q -114 957 -114 999 q -102 891 -114 925 q -69 829 -90 857 l -50 803 l -24 771 l -76 772 q -96 792 -89 781 l -128 842 q -146 879 -132 847 l -164 918 q -176 988 -176 956 q -131 1079 -176 1046 q -25 1113 -86 1113 l 14 1108 l 51 1096 l 51 1040 l 40 1043 z "},"‡":{"ha":592,"x_min":122,"x_max":540,"o":"m 518 -142 l 325 -19 l 317 -31 l 310 -39 q 282 -54 299 -47 l 250 -60 q 200 -46 215 -60 q 185 -3 185 -32 l 188 15 l 199 33 q 215 46 206 42 l 236 50 l 293 38 l 364 250 l 358 246 l 353 244 l 342 243 l 319 243 q 181 332 236 243 q 126 478 139 396 q 122 531 122 504 q 129 585 122 565 q 150 642 138 619 l 179 694 l 265 647 l 244 621 l 225 597 q 210 574 215 586 q 197 543 204 561 q 188 492 188 515 l 188 439 q 193 410 190 426 q 249 324 206 346 q 296 314 276 313 l 319 315 l 346 324 l 371 332 l 385 340 l 385 363 q 408 425 390 382 q 483 479 438 479 l 501 475 q 514 464 511 471 l 521 439 l 524 400 q 440 275 528 336 q 424 264 433 269 l 396 254 l 336 8 l 540 -97 l 518 -142 z "},"·":{"ha":501,"x_min":38,"x_max":538,"o":"m 474 36 q 365 -8 429 1 q 318 -11 346 -11 q 172 31 246 -11 q 99 74 115 63 q 38 129 49 107 l 88 179 q 107 151 88 171 l 163 106 q 313 39 243 39 l 339 39 q 364 44 356 43 q 447 104 425 61 q 461 158 461 131 q 439 217 461 182 q 364 297 410 260 l 272 372 l 183 450 q 108 533 131 496 q 85 599 85 569 q 121 686 85 657 q 217 715 157 715 l 507 717 l 507 663 l 214 660 q 190 654 200 660 l 169 642 l 154 622 l 149 601 q 249 488 149 572 l 436 331 q 513 242 481 294 q 538 169 538 200 q 474 36 538 86 z "},"∙":{"ha":501,"x_min":38,"x_max":538,"o":"m 474 36 q 365 -8 429 1 q 318 -11 346 -11 q 172 31 246 -11 q 99 74 115 63 q 38 129 49 107 l 88 179 q 107 151 88 171 l 163 106 q 313 39 243 39 l 339 39 q 364 44 356 43 q 447 104 425 61 q 461 158 461 131 q 439 217 461 182 q 364 297 410 260 l 272 372 l 183 450 q 108 533 131 496 q 85 599 85 569 q 121 686 85 657 q 217 715 157 715 l 507 717 l 507 663 l 214 660 q 190 654 200 660 l 169 642 l 154 622 l 149 601 q 249 488 149 572 l 436 331 q 513 242 481 294 q 538 169 538 200 q 474 36 538 86 z "},"‚":{"ha":299,"x_min":-149,"x_max":331,"o":"m 196 660 l 196 0 l 122 0 l 122 660 l -14 660 l -14 717 l 331 717 l 331 660 l 196 660 m 161 817 q 72 801 118 801 q -79 855 -25 801 q -149 997 -133 908 l -76 999 q -31 892 -76 935 q 17 866 -12 878 q 74 854 46 854 q 181 894 139 854 q 222 997 222 933 l 294 999 q 161 817 281 857 z "},"„":{"ha":608,"x_min":85,"x_max":558,"o":"m 499 -54 l 451 8 l 413 68 l 374 135 l 344 201 l 306 200 l 246 204 q 164 258 189 214 q 151 311 151 279 q 175 361 151 346 l 201 378 l 233 383 q 314 338 281 383 l 328 318 l 344 292 l 369 301 l 389 311 q 489 457 489 361 q 474 528 489 499 q 338 617 446 600 q 299 619 319 619 q 203 607 251 619 q 136 574 171 599 l 85 657 l 119 665 l 178 678 l 238 688 l 282 690 q 381 672 329 693 q 526 531 483 626 q 546 435 546 483 q 497 297 546 360 q 444 246 474 268 q 388 215 421 228 l 419 149 q 458 88 433 119 l 504 29 l 558 -25 l 499 -54 z "},"‰":{"ha":654,"x_min":47,"x_max":621,"o":"m 601 267 q 457 72 560 126 q 339 44 403 44 q 100 240 172 44 q 67 361 75 304 l 51 465 l 47 572 l 47 624 l 49 638 q 51 653 49 647 l 108 672 l 106 668 l 106 661 l 103 649 l 101 635 q 99 597 101 611 l 99 560 q 168 214 99 333 q 322 115 225 115 q 467 182 400 115 l 490 211 l 521 260 q 393 306 460 260 q 292 417 321 354 q 271 511 271 460 q 315 623 271 575 q 424 671 358 671 q 607 501 556 671 q 621 403 621 456 q 601 267 621 332 m 551 479 q 531 531 549 500 q 492 578 514 563 q 442 593 471 593 q 374 563 396 593 q 353 528 361 547 l 347 488 q 428 344 347 392 q 546 311 485 311 l 558 429 q 551 479 558 451 z "},"Â":{"ha":1067,"x_min":0,"x_max":0,"o":""},"Ê":{"ha":299,"x_min":-293,"x_max":336,"o":"m 194 660 l 194 0 l 122 0 l 122 660 l 0 660 l 0 717 l 106 717 q 107 722 107 718 q -4 883 107 756 q -121 961 -72 961 q -190 926 -167 961 q -214 868 -206 903 q -215 842 -215 858 q -210 806 -215 825 q -194 764 -201 778 l -176 729 l -167 715 l -247 717 l -264 739 l -278 767 l -287 797 l -290 829 q -278 897 -293 854 q -124 1015 -237 1015 q -21 978 -74 1015 q 89 865 46 931 l 129 803 l 179 715 l 311 717 l 311 660 l 194 660 m 325 1015 l 315 1019 l 288 1025 l 260 1028 q 175 971 200 1028 l 169 929 q 182 863 169 896 q 214 801 194 829 l 232 775 l 260 743 l 208 744 q 188 764 200 744 l 156 814 q 107 960 107 890 q 151 1051 107 1017 q 258 1085 194 1085 l 299 1081 l 336 1068 l 336 1013 l 325 1015 z "},"Á":{"ha":618,"x_min":0,"x_max":618,"o":"m 524 660 l 524 0 l 450 0 l 450 301 l 103 0 l 49 49 l 282 233 q 158 286 201 233 q 122 349 135 313 q 108 425 108 385 l 108 660 l 0 660 l 0 717 l 618 717 l 618 660 l 524 660 m 447 660 l 179 660 l 179 415 q 257 293 179 335 q 299 286 269 289 q 344 297 322 286 q 399 332 382 317 l 419 350 l 447 378 l 447 660 z "},"Ë":{"ha":367,"x_min":11,"x_max":493,"o":"m 344 660 l 344 717 l 372 717 l 372 660 l 344 660 m 474 219 l 424 185 q 242 129 343 129 q 119 172 175 129 q 63 278 63 214 q 97 368 63 325 l 111 382 l 133 400 q 92 432 113 410 q 33 508 50 476 q 22 537 33 510 q 11 588 11 564 q 50 689 11 650 q 151 728 89 728 q 269 661 239 728 q 279 619 279 640 l 279 578 l 217 578 l 217 621 q 154 676 217 676 q 103 650 124 676 l 89 622 l 85 590 q 92 538 85 561 q 115 493 99 515 q 154 446 136 464 q 188 431 171 433 l 235 444 l 289 450 l 314 449 l 342 446 l 372 393 l 279 389 q 225 382 240 388 q 139 281 139 363 q 213 192 139 219 l 256 186 q 426 251 338 186 l 457 279 l 493 318 l 493 244 q 474 219 493 233 z "},"È":{"ha":299,"x_min":-293,"x_max":311,"o":"m 194 660 l 194 0 l 122 0 l 122 660 l 0 660 l 0 717 l 106 717 q 107 722 107 718 q -4 883 107 756 q -121 961 -72 961 q -190 926 -167 961 q -214 868 -206 903 q -215 842 -215 858 q -210 806 -215 825 q -194 764 -201 778 l -176 729 l -167 715 l -247 717 l -264 739 l -278 767 l -287 797 l -290 829 q -278 897 -293 854 q -124 1015 -237 1015 q -21 978 -74 1015 q 89 865 46 931 l 129 803 l 179 715 l 311 717 l 311 660 l 194 660 m 188 803 l 188 893 l 283 893 l 283 803 l 188 803 z "},"Í":{"ha":667,"x_min":0,"x_max":678,"o":"m 529 660 l 529 515 l 236 515 q 171 440 171 515 q 239 340 171 381 q 372 303 301 303 q 486 324 435 303 q 519 340 503 329 l 543 356 l 569 378 l 624 336 l 572 301 l 529 279 l 529 122 l 250 122 q 224 117 235 122 q 199 99 213 113 l 183 75 l 179 47 q 315 -78 179 -46 q 385 -85 346 -85 q 478 -64 432 -85 l 542 -35 q 578 -11 565 -24 l 626 -54 l 585 -83 l 526 -112 q 465 -130 508 -121 q 388 -139 421 -139 q 269 -126 326 -139 q 129 -31 174 -106 q 108 50 108 4 q 176 160 108 131 q 219 169 199 169 l 461 171 l 461 261 l 429 254 l 407 253 l 379 253 q 192 294 267 253 q 124 358 147 319 q 100 440 100 396 q 137 535 100 506 q 228 565 174 565 l 461 567 l 461 660 l 0 660 l 0 717 l 678 717 l 678 660 l 529 660 z "},"Î":{"ha":667,"x_min":0,"x_max":678,"o":"m 529 660 l 529 515 l 236 515 q 165 440 165 515 q 179 383 165 411 q 292 310 210 333 q 372 300 340 300 q 485 319 431 300 q 517 336 494 322 l 539 350 l 564 374 l 615 331 l 572 301 l 529 279 l 529 122 l 214 122 q 165 99 189 122 l 150 75 l 144 47 q 221 -60 144 -19 q 297 -85 246 -74 q 369 -92 336 -94 l 426 -87 l 474 -75 q 529 -6 529 -60 q 510 46 529 21 l 501 51 l 489 58 l 535 103 l 554 79 l 569 64 q 600 0 600 33 q 460 -137 600 -111 q 372 -146 415 -146 q 162 -96 253 -146 q 71 50 71 -46 q 140 160 71 125 q 185 169 165 169 l 461 171 l 461 261 q 408 249 435 253 l 356 246 q 257 257 307 243 q 115 354 153 285 q 94 440 94 392 q 104 494 94 474 q 174 556 118 535 q 228 565 199 565 l 461 567 l 461 660 l 0 660 l 0 717 l 678 717 l 678 660 l 529 660 z "},"Ï":{"ha":732,"x_min":0,"x_max":729,"o":"m 618 660 l 618 501 l 307 501 l 296 497 l 293 490 l 294 482 l 297 476 l 314 456 l 342 428 l 361 411 l 382 400 l 406 394 l 432 393 l 456 394 l 486 399 l 549 408 l 583 411 q 656 388 631 415 q 668 358 664 376 l 672 321 q 592 194 672 243 q 521 167 576 185 q 442 158 483 158 l 403 158 q 385 161 390 161 l 333 172 l 314 178 l 293 186 l 314 151 l 332 128 q 375 83 350 104 q 413 69 393 72 l 442 71 l 551 93 l 592 99 q 622 92 610 99 q 671 49 650 86 q 678 18 675 39 q 658 -56 678 -19 q 492 -151 617 -133 q 444 -154 472 -154 q 304 -133 372 -154 q 168 -67 222 -107 l 118 -29 l 60 21 l 103 71 q 158 21 131 43 q 206 -11 165 15 q 444 -94 333 -94 q 528 -77 483 -94 q 594 -31 574 -60 q 608 10 606 -12 q 600 33 606 28 l 588 39 l 569 42 l 544 36 l 433 14 l 399 13 q 288 66 347 11 q 229 183 229 121 l 229 189 l 231 197 l 231 203 l 233 210 l 189 238 l 119 286 l 97 303 l 75 318 l 54 335 l 94 393 l 153 340 l 200 304 q 326 238 250 265 q 436 215 386 215 l 458 215 q 513 229 478 218 q 536 240 518 232 q 603 321 603 271 q 590 346 603 339 l 575 350 l 556 351 l 526 349 l 483 339 l 436 329 l 399 326 q 293 385 364 324 q 236 442 258 413 q 219 492 219 469 l 224 519 q 239 539 228 532 l 261 550 l 288 554 l 546 556 l 546 660 l 0 660 l 0 717 l 729 717 l 729 660 l 618 660 z "},"Ì":{"ha":535,"x_min":0,"x_max":543,"o":"m 432 660 l 432 515 l 206 515 l 183 511 l 168 510 q 131 460 132 500 q 158 396 129 422 l 176 379 l 190 374 l 253 393 l 258 392 l 265 393 l 276 393 l 286 394 l 307 394 l 313 393 l 319 393 l 332 392 l 342 392 l 375 333 l 363 333 l 349 336 l 340 336 l 332 338 l 293 338 q 264 332 281 338 l 225 319 q 192 286 206 308 q 179 238 179 264 q 193 175 179 200 q 226 139 203 154 l 265 124 l 314 118 l 338 119 l 353 124 l 350 129 l 350 156 q 353 185 350 175 l 363 208 q 386 230 371 222 q 421 238 401 238 q 479 194 467 238 l 483 167 l 479 139 l 467 115 q 447 99 457 104 l 424 93 l 496 -32 l 435 -65 l 372 76 l 367 72 l 354 71 l 335 68 l 314 68 q 181 97 231 68 q 124 154 143 118 q 106 240 106 186 q 108 265 106 257 l 118 293 l 140 326 l 149 340 l 122 358 l 104 372 q 60 460 60 417 q 89 540 60 518 q 136 563 108 554 q 176 568 153 568 l 361 569 l 361 660 l 0 660 l 0 717 l 543 717 l 543 660 l 432 660 z "},"Ó":{"ha":683,"x_min":-128,"x_max":683,"o":"m 586 660 l 586 0 l 513 0 l 513 176 q 501 165 507 168 l 478 150 q 322 101 403 101 q 158 175 219 101 q 88 340 88 257 l 119 332 l 160 329 l 210 333 q 270 360 244 336 q 296 417 296 383 q 251 481 296 460 l 203 494 l 144 500 l 81 496 l 10 483 q -74 461 -28 476 q -126 443 -110 451 l -128 507 q -79 518 -96 511 l -42 528 l 57 544 q 146 551 99 551 q 232 544 207 551 q 349 483 315 533 q 367 422 367 456 q 307 310 367 344 q 249 288 290 300 q 171 281 210 281 q 331 153 207 153 q 393 165 361 153 q 460 204 433 181 l 483 225 l 513 257 l 513 660 l 0 660 l 0 717 l 683 717 l 683 660 l 586 660 z "},"Ô":{"ha":732,"x_min":0,"x_max":729,"o":"m 618 660 l 618 535 l 307 535 l 297 531 l 294 526 l 296 519 l 304 510 l 317 496 l 336 479 l 363 461 l 382 449 l 399 442 l 415 440 l 440 442 l 469 446 l 542 458 l 579 463 l 618 458 q 672 375 672 443 q 626 276 672 313 l 607 261 l 581 246 l 581 106 l 274 106 q 247 100 258 106 l 224 88 l 208 68 l 203 44 q 289 -72 203 -42 l 324 -85 l 375 -97 q 372 -74 375 -82 l 371 -53 q 408 29 367 0 q 499 53 443 53 q 553 48 532 53 q 597 29 575 43 q 640 -37 635 11 q 579 -133 640 -106 q 450 -157 526 -157 q 219 -103 299 -157 q 133 53 133 -44 q 206 144 133 118 q 250 153 228 153 l 510 154 l 510 219 l 501 217 l 482 215 l 460 214 l 444 214 l 394 215 q 349 222 372 215 l 301 235 l 253 257 l 189 289 q 150 313 161 303 l 99 349 l 54 392 l 94 444 l 150 392 l 197 357 q 436 269 317 269 q 486 275 464 269 q 536 293 517 281 q 603 375 603 317 q 590 400 603 393 l 575 404 l 556 406 l 526 403 l 483 393 l 436 383 l 399 381 q 324 406 371 379 q 292 426 311 413 q 238 475 257 450 q 219 525 219 500 l 224 551 q 238 571 228 563 l 260 581 l 288 585 l 546 586 l 546 660 l 0 660 l 0 717 l 729 717 l 729 660 l 618 660 m 569 -32 l 556 -26 q 525 -35 544 -26 l 482 -61 l 463 -75 l 436 -97 l 443 -97 l 454 -99 l 461 -99 l 468 -100 l 482 -100 q 517 -97 504 -100 q 543 -92 536 -96 q 575 -49 575 -81 q 569 -32 575 -37 z "},"Ò":{"ha":686,"x_min":1,"x_max":706,"o":"m 279 347 l 279 221 l 278 213 l 267 203 l 253 200 q 217 218 239 200 q 156 274 181 244 l 103 336 q 85 374 88 360 l 89 385 l 100 396 l 113 403 l 122 406 l 206 407 l 206 601 q 188 645 206 628 q 143 663 169 663 q 115 657 131 663 l 92 644 l 76 622 l 71 593 l 72 574 l 79 553 l 82 543 l 89 531 l 19 532 l 14 542 l 13 550 l 7 569 l 6 588 q 44 682 1 647 q 146 717 88 717 q 269 646 240 717 q 279 594 279 621 l 279 407 l 497 407 l 497 660 l 361 660 l 361 717 l 706 717 l 706 660 l 571 660 l 571 0 l 497 0 l 497 347 l 279 347 z "},"Ú":{"ha":350,"x_min":0,"x_max":376,"o":"m 0 660 l 0 717 l 353 717 l 353 660 l 0 660 m 358 338 l 344 332 l 307 321 l 274 318 l 218 322 q 160 336 197 324 l 92 358 l 46 383 l 46 442 q 79 421 54 432 l 143 400 l 203 388 l 258 383 l 299 388 l 342 400 l 357 407 l 376 417 l 376 347 l 358 338 z "},"Û":{"ha":399,"x_min":88,"x_max":368,"o":"m 286 217 q 228 207 260 207 q 124 249 158 207 q 96 294 111 263 q 88 351 88 319 q 126 456 88 415 q 228 497 165 497 q 288 486 265 497 q 346 433 324 472 q 368 353 368 394 q 347 272 368 310 q 286 217 324 231 z "},"Ù":{"ha":483,"x_min":0,"x_max":610,"o":"m 0 660 l 0 717 l 546 717 l 546 660 l 0 660 m 358 456 q 269 421 311 456 q 228 332 228 386 q 315 151 228 253 l 351 110 l 404 58 l 361 6 l 303 67 l 261 117 q 160 332 160 239 q 178 400 160 372 q 190 419 181 406 l 225 454 l 29 456 l 29 510 l 610 510 l 610 456 l 358 456 z "},"ˆ":{"ha":654,"x_min":122,"x_max":606,"o":"m 550 -165 l 535 -143 l 525 -128 l 500 -87 l 442 19 l 432 44 l 417 40 l 403 36 q 386 33 392 36 l 372 33 q 215 117 294 33 q 157 200 179 156 q 139 286 139 238 q 178 394 139 347 l 188 403 l 199 414 l 169 447 l 144 489 l 128 532 l 122 574 q 172 671 122 638 q 208 679 189 679 l 424 681 l 456 615 l 250 615 q 225 609 239 615 q 203 590 211 603 l 189 563 q 185 531 185 550 q 194 497 185 513 l 217 461 l 228 447 l 244 431 l 429 432 l 464 364 l 288 364 q 233 326 254 364 l 218 289 l 214 251 q 293 118 214 163 q 343 108 319 108 l 376 114 l 372 117 l 371 119 l 365 135 l 364 153 q 411 222 360 201 l 439 228 q 513 182 494 228 q 518 147 518 165 q 513 114 518 128 q 494 85 508 100 l 478 65 l 464 56 l 494 7 l 531 -43 l 568 -92 l 606 -131 l 550 -165 z "},"˜":{"ha":683,"x_min":-4,"x_max":681,"o":"m 247 -32 l 249 -37 l 246 -43 l 239 -50 q 215 -47 224 -50 l 168 -32 q 149 -25 158 -28 q 103 1 129 -17 l 103 8 l 107 18 l 115 28 l 161 50 l 113 157 l 99 172 l 81 178 l 64 174 q 49 164 57 172 l 38 150 l 35 133 l 36 125 l 36 119 l 44 107 l 49 101 l 54 97 l 58 93 l 65 88 l 28 71 l 22 74 l 19 78 l 11 88 l 6 97 l 0 114 l -1 131 q 25 188 -4 158 q 89 213 50 208 l 107 210 l 125 201 l 140 189 l 153 171 l 200 69 l 361 154 q 257 167 324 154 q 228 176 244 168 q 94 371 94 226 q 133 490 94 443 q 233 536 171 536 l 458 538 l 458 660 l 0 660 l 0 717 l 681 717 l 681 660 l 532 660 l 532 483 l 261 483 q 168 371 168 483 q 290 213 168 263 q 367 201 326 201 l 381 203 l 401 206 l 426 210 l 425 222 q 432 247 425 233 q 507 324 453 324 q 565 283 551 324 l 569 258 q 550 194 569 225 q 524 168 539 178 q 493 161 514 164 l 496 143 l 506 94 l 515 64 l 532 24 l 556 -14 l 569 -33 l 583 -49 l 501 -49 l 476 8 l 460 49 q 442 103 447 79 l 436 153 l 215 36 l 247 -32 z "},"¯":{"ha":1067,"x_min":0,"x_max":0,"o":""},"ˉ":{"ha":1067,"x_min":0,"x_max":0,"o":""},"¸":{"ha":399,"x_min":0,"x_max":529,"o":"m 490 232 l 447 213 l 424 206 l 401 200 q 376 197 385 200 l 354 196 q 176 261 257 190 q 115 341 135 297 q 94 443 94 385 l 106 440 q 131 435 125 438 l 144 435 l 192 439 q 256 489 239 449 q 265 539 265 511 q 257 580 265 561 q 231 625 249 599 l 215 640 l 196 658 l 0 660 l 0 717 l 404 717 l 404 660 l 285 660 l 313 622 q 335 578 325 604 q 342 536 339 564 q 261 401 342 442 l 226 390 l 179 381 l 183 368 l 189 357 l 193 347 l 197 339 q 264 271 218 297 q 350 249 303 249 q 458 282 408 249 q 500 317 483 299 q 529 360 517 336 l 529 261 q 490 232 508 240 z "},"Š":{"ha":621,"x_min":79,"x_max":608,"o":"m 604 -36 q 593 -61 603 -43 l 578 -74 l 553 -89 l 518 -54 q 540 -47 533 -51 l 556 -37 q 565 -24 561 -35 l 569 -3 l 561 8 l 543 18 l 515 25 l 475 28 l 439 28 q 299 46 358 28 q 258 64 292 49 q 151 207 151 115 l 151 225 l 153 238 l 156 251 l 163 269 l 179 311 q 201 353 186 329 l 211 368 l 225 386 l 94 382 l 79 453 l 546 453 l 558 382 l 361 382 q 314 365 342 382 q 226 267 264 342 q 214 215 214 242 q 265 124 214 151 q 321 101 290 110 l 393 96 q 499 88 431 94 q 608 -3 600 69 l 604 -36 z "},"š":{"ha":1067,"x_min":0,"x_max":0,"o":""},"¦":{"ha":1067,"x_min":0,"x_max":0,"o":""},"Ð":{"ha":1067,"x_min":0,"x_max":0,"o":""},"ð":{"ha":667,"x_min":0,"x_max":678,"o":"m 529 660 l 529 515 l 236 515 q 165 440 165 515 q 179 383 165 411 q 292 310 210 333 q 372 300 340 300 q 493 396 451 300 l 504 435 l 515 492 l 568 475 q 565 435 568 449 l 564 399 q 558 365 563 378 l 551 338 l 547 333 l 543 325 l 538 313 l 533 296 l 531 289 l 529 278 l 529 122 l 214 122 q 165 99 189 122 l 150 75 l 144 47 q 221 -60 144 -19 q 297 -85 246 -74 q 369 -92 336 -94 l 426 -87 l 474 -75 q 529 -6 529 -60 q 510 46 529 21 l 501 51 l 489 58 l 535 103 l 554 79 l 569 64 q 600 0 600 33 q 460 -137 600 -111 q 372 -146 415 -146 q 162 -96 253 -146 q 71 50 71 -46 q 140 160 71 125 q 185 169 165 169 l 461 171 l 461 261 q 408 249 435 253 l 356 246 q 257 257 307 243 q 115 354 153 285 q 94 440 94 392 q 104 494 94 474 q 174 556 118 535 q 228 565 199 565 l 461 567 l 461 660 l 0 660 l 0 717 l 678 717 l 678 660 l 529 660 z "},"Ý":{"ha":868,"x_min":0,"x_max":876,"o":"m 489 660 l 489 453 l 503 465 l 532 486 q 615 517 575 517 q 718 488 671 517 q 786 411 765 460 q 800 343 800 378 q 732 164 800 260 l 707 136 l 660 88 l 600 136 l 636 163 l 663 188 q 726 349 726 260 q 701 425 726 393 q 618 460 671 460 q 572 444 594 460 q 525 397 543 425 q 508 371 519 392 l 489 335 l 489 0 l 415 0 l 415 276 l 119 46 l 68 94 l 282 239 l 271 236 l 261 236 l 231 238 l 204 244 l 169 261 l 139 286 l 121 310 q 108 338 111 326 l 101 369 l 100 406 l 100 660 l 0 660 l 0 717 l 876 717 l 876 660 l 489 660 m 415 660 l 171 660 l 171 396 q 203 301 171 333 q 232 283 213 292 l 276 278 q 375 317 336 278 q 415 386 408 350 l 415 660 z "},"Þ":{"ha":367,"x_min":71,"x_max":350,"o":"m 268 621 l 208 621 l 265 819 l 350 819 l 268 621 m 131 624 l 71 624 l 131 822 l 211 822 l 131 624 z "},"­":{"ha":1067,"x_min":0,"x_max":0,"o":""},"−":{"ha":1067,"x_min":0,"x_max":0,"o":""},"×":{"ha":1067,"x_min":0,"x_max":0,"o":""},"¹":{"ha":1067,"x_min":0,"x_max":0,"o":""},"²":{"ha":1067,"x_min":0,"x_max":0,"o":""},"³":{"ha":817,"x_min":0,"x_max":814,"o":"m 708 388 l 708 469 l 794 469 l 794 388 l 708 388 m 626 660 l 626 478 l 331 478 l 322 467 l 321 457 l 322 442 q 329 425 325 431 l 340 403 l 361 374 l 382 349 l 403 332 l 424 319 l 444 317 l 453 317 l 458 318 l 554 346 l 589 354 l 613 357 q 668 319 644 357 l 679 285 l 683 246 q 668 151 683 193 q 554 38 638 68 q 469 24 517 24 q 267 104 369 24 q 119 254 179 172 l 76 313 l 63 340 l 117 393 q 131 363 119 379 q 168 307 136 350 q 233 224 188 278 l 301 158 q 390 101 333 128 q 469 81 432 81 q 572 124 532 81 q 613 243 613 167 q 576 289 613 289 q 544 282 565 289 q 490 264 518 278 l 461 254 l 442 251 q 308 337 374 251 q 242 476 242 422 l 246 503 q 261 521 250 517 l 285 531 l 315 533 l 556 535 l 556 660 l 0 660 l 0 717 l 814 717 l 814 660 l 626 660 z "},"½":{"ha":350,"x_min":11,"x_max":299,"o":"m 269 131 q 143 -161 229 -22 l 104 -224 q 92 -242 97 -235 q 89 -244 92 -243 l 11 -244 l 39 -203 l 67 -162 q 96 -112 78 -146 q 124 -58 104 -99 l 171 49 q 214 206 194 101 q 228 357 228 283 q 172 675 228 525 q 100 833 144 749 q 68 883 83 863 l 28 939 q 14 956 21 949 l 11 958 l 89 960 l 106 939 l 143 882 q 172 832 156 863 q 285 515 257 672 q 299 357 299 436 q 269 131 299 243 z "},"¼":{"ha":333,"x_min":111,"x_max":401,"o":"m 319 -244 l 304 -224 l 267 -162 l 211 -57 q 188 -3 203 -42 q 167 54 179 17 q 125 212 139 136 q 111 357 111 288 q 164 671 111 521 q 264 882 208 797 l 301 939 q 319 958 313 956 l 401 960 q 325 856 365 922 q 290 789 308 828 q 253 706 276 761 l 222 618 q 201 532 214 590 l 189 444 l 185 357 q 199 203 182 294 q 286 -57 219 82 q 344 -162 319 -126 l 401 -244 l 319 -244 z "},"¾":{"ha":783,"x_min":25,"x_max":738,"o":"m 25 461 l 25 521 l 738 521 l 738 461 l 25 461 m 25 188 l 25 247 l 738 247 l 738 188 l 25 188 z "}," ":{"ha":526,"x_min":0,"x_max":0,"o":""}}}
